%TF.GenerationSoftware,KiCad,Pcbnew,7.0.1*%
%TF.CreationDate,2023-03-29T08:45:06-04:00*%
%TF.ProjectId,BuckarooHAT,4275636b-6172-46f6-9f48-41542e6b6963,rev?*%
%TF.SameCoordinates,Original*%
%TF.FileFunction,Copper,L2,Bot*%
%TF.FilePolarity,Positive*%
%FSLAX46Y46*%
G04 Gerber Fmt 4.6, Leading zero omitted, Abs format (unit mm)*
G04 Created by KiCad (PCBNEW 7.0.1) date 2023-03-29 08:45:06*
%MOMM*%
%LPD*%
G01*
G04 APERTURE LIST*
%TA.AperFunction,ComponentPad*%
%ADD10C,3.100000*%
%TD*%
%TA.AperFunction,ConnectorPad*%
%ADD11C,4.500000*%
%TD*%
%TA.AperFunction,ViaPad*%
%ADD12C,0.600000*%
%TD*%
%TA.AperFunction,Conductor*%
%ADD13C,0.600000*%
%TD*%
G04 APERTURE END LIST*
D10*
%TO.P,H1,1*%
%TO.N,N/C*%
X159258000Y-74295000D03*
D11*
X159258000Y-74295000D03*
%TD*%
D10*
%TO.P,H2,1*%
%TO.N,N/C*%
X101625400Y-74295000D03*
D11*
X101625400Y-74295000D03*
%TD*%
D12*
%TO.N,GND*%
X161798000Y-72136000D03*
X108585000Y-81915000D03*
X108585000Y-79883000D03*
X158115000Y-83439000D03*
X145542000Y-79121000D03*
X144018000Y-82931000D03*
X132588000Y-83285500D03*
X111125000Y-71247000D03*
X156845000Y-76581000D03*
X146050000Y-78740000D03*
X143383000Y-82931000D03*
X131064000Y-83285500D03*
X158115000Y-84201000D03*
X156718000Y-72009000D03*
X161798000Y-76581000D03*
X111125000Y-71882000D03*
X149352000Y-82931000D03*
X146050000Y-79502000D03*
%TO.N,+5V*%
X135001000Y-81026000D03*
X147701000Y-82931000D03*
%TD*%
D13*
%TO.N,+5V*%
X146948600Y-82178600D02*
X136153600Y-82178600D01*
X147701000Y-82931000D02*
X146948600Y-82178600D01*
X136153600Y-82178600D02*
X135001000Y-81026000D01*
%TD*%
%TA.AperFunction,Conductor*%
%TO.N,GND*%
G36*
X112386500Y-70448113D02*
G01*
X112431887Y-70493500D01*
X112448500Y-70555500D01*
X112448500Y-72166598D01*
X112429493Y-72232571D01*
X112378300Y-72278319D01*
X112310614Y-72289818D01*
X112247185Y-72263543D01*
X112243788Y-72260834D01*
X112224160Y-72241204D01*
X112218425Y-72234012D01*
X112210135Y-72230020D01*
X112186626Y-72215248D01*
X112179432Y-72209510D01*
X112177400Y-72209046D01*
X112170453Y-72207460D01*
X112144257Y-72198294D01*
X112135963Y-72194300D01*
X112112790Y-72194300D01*
X105023963Y-72194300D01*
X104932437Y-72194300D01*
X104932435Y-72194300D01*
X104924138Y-72198295D01*
X104897944Y-72207460D01*
X104888970Y-72209508D01*
X104881768Y-72215252D01*
X104858267Y-72230019D01*
X104849975Y-72234012D01*
X104844236Y-72241209D01*
X104824609Y-72260836D01*
X104817412Y-72266575D01*
X104813419Y-72274867D01*
X104798652Y-72298368D01*
X104792908Y-72305570D01*
X104790860Y-72314544D01*
X104781695Y-72340738D01*
X104777700Y-72349035D01*
X104777700Y-76504562D01*
X104781693Y-76512854D01*
X104790860Y-76539053D01*
X104792446Y-76546000D01*
X104792910Y-76548032D01*
X104798648Y-76555226D01*
X104813420Y-76578735D01*
X104817412Y-76587025D01*
X104824604Y-76592760D01*
X104844239Y-76612394D01*
X104849976Y-76619589D01*
X104858264Y-76623580D01*
X104881771Y-76638350D01*
X104888969Y-76644090D01*
X104897937Y-76646136D01*
X104924147Y-76655308D01*
X104932436Y-76659300D01*
X104932437Y-76659300D01*
X104955610Y-76659300D01*
X105023963Y-76659300D01*
X112044437Y-76659300D01*
X112112790Y-76659300D01*
X112135961Y-76659300D01*
X112135963Y-76659300D01*
X112144255Y-76655306D01*
X112170454Y-76646138D01*
X112179431Y-76644090D01*
X112186621Y-76638355D01*
X112210140Y-76623577D01*
X112218424Y-76619588D01*
X112224161Y-76612394D01*
X112243805Y-76592751D01*
X112247202Y-76590042D01*
X112310630Y-76563780D01*
X112378310Y-76575286D01*
X112429496Y-76621034D01*
X112448500Y-76687002D01*
X112448500Y-77896762D01*
X112452493Y-77905054D01*
X112461660Y-77931253D01*
X112463246Y-77938200D01*
X112463710Y-77940232D01*
X112469448Y-77947426D01*
X112484220Y-77970935D01*
X112488212Y-77979225D01*
X112495404Y-77984960D01*
X112515039Y-78004594D01*
X112520776Y-78011789D01*
X112529064Y-78015780D01*
X112552571Y-78030550D01*
X112559769Y-78036290D01*
X112568737Y-78038336D01*
X112594947Y-78047508D01*
X112603236Y-78051500D01*
X112603237Y-78051500D01*
X112626410Y-78051500D01*
X112694763Y-78051500D01*
X154519118Y-78051500D01*
X154581590Y-78051500D01*
X154664172Y-78051500D01*
X154872376Y-78021565D01*
X155074200Y-77962304D01*
X155265536Y-77874924D01*
X155442489Y-77761203D01*
X155601456Y-77623456D01*
X155739203Y-77464489D01*
X155852924Y-77287536D01*
X155940304Y-77096200D01*
X155999565Y-76894376D01*
X156029500Y-76686172D01*
X156029500Y-76581000D01*
X156029500Y-76541118D01*
X156029500Y-74295000D01*
X156702456Y-74295000D01*
X156722607Y-74615289D01*
X156782744Y-74930541D01*
X156881914Y-75235753D01*
X157018563Y-75526146D01*
X157190521Y-75797110D01*
X157395088Y-76044389D01*
X157629037Y-76264082D01*
X157888671Y-76452716D01*
X158132977Y-76587024D01*
X158169903Y-76607324D01*
X158468294Y-76725466D01*
X158779139Y-76805277D01*
X159043713Y-76838700D01*
X159097535Y-76845500D01*
X159097536Y-76845500D01*
X159418464Y-76845500D01*
X159418465Y-76845500D01*
X159464504Y-76839683D01*
X159736861Y-76805277D01*
X160047706Y-76725466D01*
X160346097Y-76607324D01*
X160627328Y-76452716D01*
X160681942Y-76413037D01*
X160886962Y-76264082D01*
X160912378Y-76240214D01*
X161120911Y-76044390D01*
X161325478Y-75797110D01*
X161497439Y-75526142D01*
X161634084Y-75235758D01*
X161733256Y-74930538D01*
X161793392Y-74615294D01*
X161813543Y-74295000D01*
X161793392Y-73974706D01*
X161733256Y-73659462D01*
X161634084Y-73354242D01*
X161497439Y-73063858D01*
X161497436Y-73063853D01*
X161325478Y-72792889D01*
X161120911Y-72545610D01*
X160886962Y-72325917D01*
X160627328Y-72137283D01*
X160346098Y-71982676D01*
X160047703Y-71864533D01*
X159736863Y-71784723D01*
X159418465Y-71744500D01*
X159418464Y-71744500D01*
X159097536Y-71744500D01*
X159097535Y-71744500D01*
X158779136Y-71784723D01*
X158468296Y-71864533D01*
X158169901Y-71982676D01*
X157888671Y-72137283D01*
X157629037Y-72325917D01*
X157395088Y-72545610D01*
X157190521Y-72792889D01*
X157018563Y-73063853D01*
X156881914Y-73354246D01*
X156782744Y-73659458D01*
X156722607Y-73974710D01*
X156702456Y-74295000D01*
X156029500Y-74295000D01*
X156029500Y-72522412D01*
X156029972Y-72511605D01*
X156042167Y-72372210D01*
X156044802Y-72342090D01*
X156048555Y-72320807D01*
X156052638Y-72305569D01*
X156091193Y-72161678D01*
X156098579Y-72141385D01*
X156168207Y-71992069D01*
X156178998Y-71973378D01*
X156273502Y-71838411D01*
X156287380Y-71821873D01*
X156403873Y-71705380D01*
X156420411Y-71691502D01*
X156555378Y-71596998D01*
X156574069Y-71586207D01*
X156723385Y-71516579D01*
X156743678Y-71509193D01*
X156902807Y-71466554D01*
X156924090Y-71462802D01*
X157093604Y-71447972D01*
X157104412Y-71447500D01*
X157138882Y-71447500D01*
X161377118Y-71447500D01*
X161411588Y-71447500D01*
X161422395Y-71447972D01*
X161591907Y-71462802D01*
X161613192Y-71466555D01*
X161643008Y-71474544D01*
X161772317Y-71509192D01*
X161792618Y-71516581D01*
X161941925Y-71586204D01*
X161960626Y-71597001D01*
X162095582Y-71691497D01*
X162112132Y-71705386D01*
X162228613Y-71821867D01*
X162242502Y-71838419D01*
X162336996Y-71973370D01*
X162347797Y-71992078D01*
X162415507Y-72137283D01*
X162417415Y-72141374D01*
X162424808Y-72161686D01*
X162467444Y-72320807D01*
X162471197Y-72342092D01*
X162486028Y-72511604D01*
X162486500Y-72522412D01*
X162486500Y-85211588D01*
X162486028Y-85222396D01*
X162471197Y-85391907D01*
X162467444Y-85413192D01*
X162424808Y-85572313D01*
X162417415Y-85592625D01*
X162347798Y-85741919D01*
X162336992Y-85760634D01*
X162250431Y-85884259D01*
X162242507Y-85895575D01*
X162228613Y-85912132D01*
X162112132Y-86028613D01*
X162095574Y-86042507D01*
X161960634Y-86136992D01*
X161941919Y-86147798D01*
X161792625Y-86217415D01*
X161772313Y-86224808D01*
X161613192Y-86267444D01*
X161591906Y-86271197D01*
X161422389Y-86286028D01*
X161411582Y-86286500D01*
X161352905Y-86286500D01*
X161352521Y-86286576D01*
X156088137Y-86292826D01*
X156077868Y-86292412D01*
X155918051Y-86279323D01*
X155898073Y-86276028D01*
X155747379Y-86238320D01*
X155728205Y-86231819D01*
X155585648Y-86170088D01*
X155567788Y-86160553D01*
X155437179Y-86076449D01*
X155421109Y-86064134D01*
X155305929Y-85959898D01*
X155292076Y-85945132D01*
X155195393Y-85823540D01*
X155184128Y-85806718D01*
X155115354Y-85683280D01*
X155108518Y-85671011D01*
X155100147Y-85652592D01*
X155047624Y-85506373D01*
X155042362Y-85486836D01*
X155013420Y-85329041D01*
X155012001Y-85319013D01*
X155008537Y-85284366D01*
X155008536Y-85284364D01*
X155006119Y-85260193D01*
X155006071Y-85260037D01*
X155001623Y-85215772D01*
X154948455Y-85004720D01*
X154864925Y-84803741D01*
X154823576Y-84734917D01*
X154752840Y-84617179D01*
X154614612Y-84449057D01*
X154555063Y-84395166D01*
X154453240Y-84303017D01*
X154434928Y-84290797D01*
X154272203Y-84182208D01*
X154173806Y-84135724D01*
X154075411Y-84089240D01*
X153952879Y-84052110D01*
X153867122Y-84026124D01*
X153867120Y-84026123D01*
X153867118Y-84026123D01*
X153651823Y-83994220D01*
X153651663Y-83994219D01*
X153579503Y-83994183D01*
X153579291Y-83994160D01*
X153565558Y-83994162D01*
X153540884Y-83994165D01*
X153540857Y-83994166D01*
X153479285Y-83994166D01*
X153479233Y-83994175D01*
X114429078Y-84000500D01*
X114321828Y-84000500D01*
X114113622Y-84030435D01*
X113911800Y-84089695D01*
X113720463Y-84177075D01*
X113543507Y-84290799D01*
X113384543Y-84428543D01*
X113246799Y-84587507D01*
X113133075Y-84764463D01*
X113045695Y-84955800D01*
X112986435Y-85157622D01*
X112956500Y-85365828D01*
X112956500Y-85973588D01*
X112956028Y-85984396D01*
X112941197Y-86153907D01*
X112937444Y-86175192D01*
X112894808Y-86334313D01*
X112887415Y-86354625D01*
X112817798Y-86503919D01*
X112806991Y-86522638D01*
X112712507Y-86657575D01*
X112698613Y-86674132D01*
X112582132Y-86790613D01*
X112565574Y-86804507D01*
X112430634Y-86898992D01*
X112411919Y-86909798D01*
X112262625Y-86979415D01*
X112242313Y-86986808D01*
X112083192Y-87029444D01*
X112061907Y-87033197D01*
X111909758Y-87046508D01*
X111892394Y-87048028D01*
X111881588Y-87048500D01*
X105161412Y-87048500D01*
X105150605Y-87048028D01*
X105131194Y-87046329D01*
X104981092Y-87033197D01*
X104959807Y-87029444D01*
X104800686Y-86986808D01*
X104780374Y-86979415D01*
X104631080Y-86909798D01*
X104612370Y-86898996D01*
X104477419Y-86804502D01*
X104460867Y-86790613D01*
X104344386Y-86674132D01*
X104330497Y-86657582D01*
X104236001Y-86522626D01*
X104225204Y-86503925D01*
X104155581Y-86354618D01*
X104148191Y-86334313D01*
X104135379Y-86286499D01*
X104118097Y-86222001D01*
X104105555Y-86175192D01*
X104101802Y-86153906D01*
X104090840Y-86028613D01*
X104086972Y-85984395D01*
X104086500Y-85973588D01*
X104086500Y-81025999D01*
X134395317Y-81025999D01*
X134415956Y-81182762D01*
X134476463Y-81328840D01*
X134572716Y-81454281D01*
X134597768Y-81473503D01*
X134609964Y-81484199D01*
X135695399Y-82569634D01*
X135706094Y-82581829D01*
X135725317Y-82606882D01*
X135827041Y-82684936D01*
X135827042Y-82684937D01*
X135850759Y-82703136D01*
X135996838Y-82763644D01*
X136153600Y-82784283D01*
X136184908Y-82780160D01*
X136201094Y-82779100D01*
X146648503Y-82779100D01*
X146695956Y-82788539D01*
X146736184Y-82815419D01*
X147242799Y-83322034D01*
X147253494Y-83334229D01*
X147272717Y-83359282D01*
X147391711Y-83450588D01*
X147396630Y-83454902D01*
X147398157Y-83455534D01*
X147398158Y-83455535D01*
X147398159Y-83455536D01*
X147544238Y-83516044D01*
X147701000Y-83536682D01*
X147857762Y-83516044D01*
X148003841Y-83455536D01*
X148129282Y-83359282D01*
X148225536Y-83233841D01*
X148286044Y-83087762D01*
X148298169Y-82995662D01*
X156848501Y-82995662D01*
X156852494Y-83003953D01*
X156861661Y-83030152D01*
X156861664Y-83030161D01*
X156863711Y-83039131D01*
X156869449Y-83046325D01*
X156884221Y-83069834D01*
X156888213Y-83078124D01*
X156895405Y-83083859D01*
X156915040Y-83103493D01*
X156920777Y-83110688D01*
X156929065Y-83114679D01*
X156952572Y-83129449D01*
X156959770Y-83135189D01*
X156968738Y-83137235D01*
X156994948Y-83146407D01*
X157003237Y-83150399D01*
X157003238Y-83150399D01*
X157026411Y-83150399D01*
X157094764Y-83150399D01*
X161575238Y-83150399D01*
X161643591Y-83150399D01*
X161666762Y-83150399D01*
X161666764Y-83150399D01*
X161675056Y-83146405D01*
X161701255Y-83137237D01*
X161710232Y-83135189D01*
X161717422Y-83129454D01*
X161740941Y-83114676D01*
X161749225Y-83110687D01*
X161754962Y-83103493D01*
X161774596Y-83083858D01*
X161781789Y-83078123D01*
X161785781Y-83069834D01*
X161800556Y-83046321D01*
X161800985Y-83045782D01*
X161806291Y-83039130D01*
X161808339Y-83030153D01*
X161817508Y-83003953D01*
X161821501Y-82995662D01*
X161821501Y-82904136D01*
X161821501Y-78863309D01*
X161821501Y-78840136D01*
X161821500Y-78840134D01*
X161817509Y-78831846D01*
X161808337Y-78805634D01*
X161806291Y-78796668D01*
X161800551Y-78789470D01*
X161785781Y-78765963D01*
X161781790Y-78757675D01*
X161774595Y-78751938D01*
X161754961Y-78732303D01*
X161749226Y-78725111D01*
X161740936Y-78721119D01*
X161717427Y-78706347D01*
X161710233Y-78700609D01*
X161708201Y-78700145D01*
X161701254Y-78698559D01*
X161675058Y-78689393D01*
X161666764Y-78685399D01*
X161643591Y-78685399D01*
X157094764Y-78685399D01*
X157003238Y-78685399D01*
X157003236Y-78685399D01*
X156994939Y-78689394D01*
X156968745Y-78698559D01*
X156959771Y-78700607D01*
X156952569Y-78706351D01*
X156929068Y-78721118D01*
X156920776Y-78725111D01*
X156915037Y-78732308D01*
X156895410Y-78751935D01*
X156888213Y-78757674D01*
X156884220Y-78765966D01*
X156869453Y-78789467D01*
X156863709Y-78796669D01*
X156861661Y-78805643D01*
X156852496Y-78831837D01*
X156848501Y-78840134D01*
X156848501Y-78840135D01*
X156848501Y-78840136D01*
X156848501Y-78863309D01*
X156848501Y-82904136D01*
X156848501Y-82995662D01*
X148298169Y-82995662D01*
X148306682Y-82931000D01*
X148286044Y-82774238D01*
X148225536Y-82628159D01*
X148189986Y-82581829D01*
X148153454Y-82534219D01*
X148153452Y-82534217D01*
X148153450Y-82534215D01*
X148129282Y-82502718D01*
X148104229Y-82483494D01*
X148092035Y-82472800D01*
X147406799Y-81787564D01*
X147396103Y-81775368D01*
X147376881Y-81750316D01*
X147251440Y-81654063D01*
X147105362Y-81593556D01*
X146987961Y-81578100D01*
X146983380Y-81577497D01*
X146948600Y-81572917D01*
X146920763Y-81576582D01*
X146917297Y-81577039D01*
X146901113Y-81578100D01*
X136453697Y-81578100D01*
X136406244Y-81568661D01*
X136366016Y-81541781D01*
X135459199Y-80634964D01*
X135448503Y-80622768D01*
X135429281Y-80597716D01*
X135303840Y-80501463D01*
X135157762Y-80440956D01*
X135001000Y-80420317D01*
X134844237Y-80440956D01*
X134698159Y-80501463D01*
X134572717Y-80597717D01*
X134476463Y-80723159D01*
X134415956Y-80869237D01*
X134395317Y-81025999D01*
X104086500Y-81025999D01*
X104086500Y-79142828D01*
X104074919Y-79062283D01*
X104056565Y-78934624D01*
X103997304Y-78732800D01*
X103993793Y-78725111D01*
X103909924Y-78541463D01*
X103796200Y-78364507D01*
X103658456Y-78205543D01*
X103499492Y-78067799D01*
X103322536Y-77954075D01*
X103131199Y-77866695D01*
X102929377Y-77807435D01*
X102721172Y-77777500D01*
X102638590Y-77777500D01*
X99827412Y-77777500D01*
X99816605Y-77777028D01*
X99797194Y-77775329D01*
X99647092Y-77762197D01*
X99625807Y-77758444D01*
X99466686Y-77715808D01*
X99446374Y-77708415D01*
X99297080Y-77638798D01*
X99278370Y-77627996D01*
X99143419Y-77533502D01*
X99126867Y-77519613D01*
X99010386Y-77403132D01*
X98996497Y-77386582D01*
X98902001Y-77251626D01*
X98891204Y-77232925D01*
X98821581Y-77083618D01*
X98814191Y-77063313D01*
X98771555Y-76904192D01*
X98767802Y-76882906D01*
X98764529Y-76845500D01*
X98752972Y-76713395D01*
X98752500Y-76702588D01*
X98752500Y-74295000D01*
X99069856Y-74295000D01*
X99090007Y-74615289D01*
X99150144Y-74930541D01*
X99249314Y-75235753D01*
X99385963Y-75526146D01*
X99557921Y-75797110D01*
X99762488Y-76044389D01*
X99996437Y-76264082D01*
X100256071Y-76452716D01*
X100500377Y-76587024D01*
X100537303Y-76607324D01*
X100835694Y-76725466D01*
X101146539Y-76805277D01*
X101411113Y-76838700D01*
X101464935Y-76845500D01*
X101464936Y-76845500D01*
X101785864Y-76845500D01*
X101785865Y-76845500D01*
X101831904Y-76839683D01*
X102104261Y-76805277D01*
X102415106Y-76725466D01*
X102713497Y-76607324D01*
X102994728Y-76452716D01*
X103049342Y-76413037D01*
X103254362Y-76264082D01*
X103279778Y-76240214D01*
X103488311Y-76044390D01*
X103692878Y-75797110D01*
X103864839Y-75526142D01*
X104001484Y-75235758D01*
X104100656Y-74930538D01*
X104160792Y-74615294D01*
X104180943Y-74295000D01*
X104160792Y-73974706D01*
X104100656Y-73659462D01*
X104001484Y-73354242D01*
X103864839Y-73063858D01*
X103864836Y-73063853D01*
X103692878Y-72792889D01*
X103488311Y-72545610D01*
X103254362Y-72325917D01*
X102994728Y-72137283D01*
X102713498Y-71982676D01*
X102415103Y-71864533D01*
X102104263Y-71784723D01*
X101785865Y-71744500D01*
X101785864Y-71744500D01*
X101464936Y-71744500D01*
X101464935Y-71744500D01*
X101146536Y-71784723D01*
X100835696Y-71864533D01*
X100537301Y-71982676D01*
X100256071Y-72137283D01*
X99996437Y-72325917D01*
X99762488Y-72545610D01*
X99557921Y-72792889D01*
X99385963Y-73063853D01*
X99249314Y-73354246D01*
X99150144Y-73659458D01*
X99090007Y-73974710D01*
X99069856Y-74295000D01*
X98752500Y-74295000D01*
X98752500Y-71506412D01*
X98752972Y-71495605D01*
X98754815Y-71474544D01*
X98767802Y-71326090D01*
X98771555Y-71304807D01*
X98802954Y-71187624D01*
X98814193Y-71145678D01*
X98821579Y-71125385D01*
X98891207Y-70976069D01*
X98901998Y-70957378D01*
X98996502Y-70822411D01*
X99010380Y-70805873D01*
X99126873Y-70689380D01*
X99143411Y-70675502D01*
X99278378Y-70580998D01*
X99297069Y-70570207D01*
X99446385Y-70500579D01*
X99466678Y-70493193D01*
X99625807Y-70450554D01*
X99647090Y-70446802D01*
X99816604Y-70431972D01*
X99827412Y-70431500D01*
X99861882Y-70431500D01*
X112324500Y-70431500D01*
X112386500Y-70448113D01*
G37*
%TD.AperFunction*%
%TD*%
M02*
