%TF.GenerationSoftware,KiCad,Pcbnew,7.0.1*%
%TF.CreationDate,2023-04-12T12:59:04-04:00*%
%TF.ProjectId,BuckarooHAT,4275636b-6172-46f6-9f48-41542e6b6963,rev?*%
%TF.SameCoordinates,Original*%
%TF.FileFunction,Drillmap*%
%TF.FilePolarity,Positive*%
%FSLAX45Y45*%
G04 Gerber Fmt 4.5, Leading zero omitted, Abs format (unit mm)*
G04 Created by KiCad (PCBNEW 7.0.1) date 2023-04-12 12:59:04*
%MOMM*%
%LPD*%
G01*
G04 APERTURE LIST*
%ADD10C,0.100000*%
%ADD11C,0.200000*%
G04 APERTURE END LIST*
D10*
X11290300Y-7721600D02*
G75*
G03*
X11353800Y-7785100I63500J0D01*
G01*
X10388600Y-7924800D02*
G75*
G03*
X10261600Y-7797800I-127000J0D01*
G01*
X11188700Y-8724900D02*
G75*
G03*
X11315700Y-8597900I0J127000D01*
G01*
X15582900Y-7658100D02*
X15582900Y-7251700D01*
X15709900Y-7124700D02*
G75*
G03*
X15582900Y-7251700I0J-127000D01*
G01*
X11315700Y-8547100D02*
X11315700Y-8597900D01*
X9855200Y-7670800D02*
G75*
G03*
X9982200Y-7797800I127000J0D01*
G01*
X11290300Y-7023100D02*
X11290300Y-7721600D01*
X15455900Y-7785100D02*
G75*
G03*
X15582900Y-7658100I0J127000D01*
G01*
X16141700Y-8648700D02*
G75*
G03*
X16268700Y-8521700I0J127000D01*
G01*
X10388600Y-8597900D02*
X10388600Y-7924800D01*
X9855200Y-7150100D02*
X9855200Y-7670800D01*
X16268700Y-7251700D02*
X16268700Y-8521700D01*
X16268700Y-7251700D02*
G75*
G03*
X16141700Y-7124700I-127000J0D01*
G01*
X11442700Y-8420100D02*
G75*
G03*
X11315700Y-8547100I0J-127000D01*
G01*
X11188700Y-8724900D02*
X10515600Y-8724900D01*
X16141700Y-8648700D02*
X15608300Y-8649333D01*
X11353800Y-7785100D02*
X15455900Y-7785100D01*
X15481300Y-8534400D02*
G75*
G03*
X15354300Y-8419467I-127000J-12700D01*
G01*
X15481300Y-8534400D02*
G75*
G03*
X15608300Y-8649333I127000J12700D01*
G01*
X10388600Y-8597900D02*
G75*
G03*
X10515600Y-8724900I127000J0D01*
G01*
X9982200Y-7023100D02*
G75*
G03*
X9855200Y-7150100I0J-127000D01*
G01*
X9982200Y-7023100D02*
X11290300Y-7023100D01*
X10261600Y-7797800D02*
X9982200Y-7797800D01*
X15354300Y-8419467D02*
X11442700Y-8420100D01*
X15709900Y-7124700D02*
X16141700Y-7124700D01*
D11*
X10097819Y-9042424D02*
X10097819Y-8842424D01*
X10097819Y-8842424D02*
X10145438Y-8842424D01*
X10145438Y-8842424D02*
X10174010Y-8851948D01*
X10174010Y-8851948D02*
X10193057Y-8870995D01*
X10193057Y-8870995D02*
X10202581Y-8890043D01*
X10202581Y-8890043D02*
X10212105Y-8928138D01*
X10212105Y-8928138D02*
X10212105Y-8956710D01*
X10212105Y-8956710D02*
X10202581Y-8994805D01*
X10202581Y-8994805D02*
X10193057Y-9013852D01*
X10193057Y-9013852D02*
X10174010Y-9032900D01*
X10174010Y-9032900D02*
X10145438Y-9042424D01*
X10145438Y-9042424D02*
X10097819Y-9042424D01*
X10297819Y-9042424D02*
X10297819Y-8909090D01*
X10297819Y-8947186D02*
X10307343Y-8928138D01*
X10307343Y-8928138D02*
X10316867Y-8918614D01*
X10316867Y-8918614D02*
X10335914Y-8909090D01*
X10335914Y-8909090D02*
X10354962Y-8909090D01*
X10421629Y-9042424D02*
X10421629Y-8909090D01*
X10421629Y-8842424D02*
X10412105Y-8851948D01*
X10412105Y-8851948D02*
X10421629Y-8861471D01*
X10421629Y-8861471D02*
X10431152Y-8851948D01*
X10431152Y-8851948D02*
X10421629Y-8842424D01*
X10421629Y-8842424D02*
X10421629Y-8861471D01*
X10545438Y-9042424D02*
X10526390Y-9032900D01*
X10526390Y-9032900D02*
X10516867Y-9013852D01*
X10516867Y-9013852D02*
X10516867Y-8842424D01*
X10650200Y-9042424D02*
X10631152Y-9032900D01*
X10631152Y-9032900D02*
X10621629Y-9013852D01*
X10621629Y-9013852D02*
X10621629Y-8842424D01*
X10878771Y-9042424D02*
X10878771Y-8842424D01*
X10878771Y-8842424D02*
X10945438Y-8985281D01*
X10945438Y-8985281D02*
X11012105Y-8842424D01*
X11012105Y-8842424D02*
X11012105Y-9042424D01*
X11193057Y-9042424D02*
X11193057Y-8937662D01*
X11193057Y-8937662D02*
X11183533Y-8918614D01*
X11183533Y-8918614D02*
X11164486Y-8909090D01*
X11164486Y-8909090D02*
X11126390Y-8909090D01*
X11126390Y-8909090D02*
X11107343Y-8918614D01*
X11193057Y-9032900D02*
X11174010Y-9042424D01*
X11174010Y-9042424D02*
X11126390Y-9042424D01*
X11126390Y-9042424D02*
X11107343Y-9032900D01*
X11107343Y-9032900D02*
X11097819Y-9013852D01*
X11097819Y-9013852D02*
X11097819Y-8994805D01*
X11097819Y-8994805D02*
X11107343Y-8975757D01*
X11107343Y-8975757D02*
X11126390Y-8966233D01*
X11126390Y-8966233D02*
X11174010Y-8966233D01*
X11174010Y-8966233D02*
X11193057Y-8956710D01*
X11288295Y-8909090D02*
X11288295Y-9109090D01*
X11288295Y-8918614D02*
X11307343Y-8909090D01*
X11307343Y-8909090D02*
X11345438Y-8909090D01*
X11345438Y-8909090D02*
X11364486Y-8918614D01*
X11364486Y-8918614D02*
X11374009Y-8928138D01*
X11374009Y-8928138D02*
X11383533Y-8947186D01*
X11383533Y-8947186D02*
X11383533Y-9004329D01*
X11383533Y-9004329D02*
X11374009Y-9023376D01*
X11374009Y-9023376D02*
X11364486Y-9032900D01*
X11364486Y-9032900D02*
X11345438Y-9042424D01*
X11345438Y-9042424D02*
X11307343Y-9042424D01*
X11307343Y-9042424D02*
X11288295Y-9032900D01*
X11469248Y-9023376D02*
X11478771Y-9032900D01*
X11478771Y-9032900D02*
X11469248Y-9042424D01*
X11469248Y-9042424D02*
X11459724Y-9032900D01*
X11459724Y-9032900D02*
X11469248Y-9023376D01*
X11469248Y-9023376D02*
X11469248Y-9042424D01*
X11469248Y-8918614D02*
X11478771Y-8928138D01*
X11478771Y-8928138D02*
X11469248Y-8937662D01*
X11469248Y-8937662D02*
X11459724Y-8928138D01*
X11459724Y-8928138D02*
X11469248Y-8918614D01*
X11469248Y-8918614D02*
X11469248Y-8937662D01*
M02*
