%TF.GenerationSoftware,KiCad,Pcbnew,7.0.1*%
%TF.CreationDate,2023-04-12T12:59:01-04:00*%
%TF.ProjectId,BuckarooHAT,4275636b-6172-46f6-9f48-41542e6b6963,rev?*%
%TF.SameCoordinates,Original*%
%TF.FileFunction,Profile,NP*%
%FSLAX46Y46*%
G04 Gerber Fmt 4.6, Leading zero omitted, Abs format (unit mm)*
G04 Created by KiCad (PCBNEW 7.0.1) date 2023-04-12 12:59:01*
%MOMM*%
%LPD*%
G01*
G04 APERTURE LIST*
%TA.AperFunction,Profile*%
%ADD10C,0.100000*%
%TD*%
%TA.AperFunction,Profile*%
%ADD11C,0.050000*%
%TD*%
G04 APERTURE END LIST*
D10*
X112903002Y-77216000D02*
G75*
G03*
X113538000Y-77851000I634998J-2D01*
G01*
X103886000Y-79248000D02*
G75*
G03*
X102616000Y-77978000I-1270000J0D01*
G01*
X111887000Y-87249000D02*
G75*
G03*
X113157000Y-85979000I0J1270000D01*
G01*
X155829000Y-76581000D02*
X155829000Y-72517000D01*
X157099000Y-71247000D02*
G75*
G03*
X155829000Y-72517000I0J-1270000D01*
G01*
X113157000Y-85471000D02*
X113157000Y-85979000D01*
X98552000Y-76708000D02*
G75*
G03*
X99822000Y-77978000I1270000J0D01*
G01*
X112903000Y-70231000D02*
X112903000Y-77216000D01*
X154559000Y-77851000D02*
G75*
G03*
X155829000Y-76581000I0J1270000D01*
G01*
X161417000Y-86487000D02*
G75*
G03*
X162687000Y-85217000I0J1270000D01*
G01*
X103886000Y-85979000D02*
X103886000Y-79248000D01*
X98552000Y-71501000D02*
X98552000Y-76708000D01*
X162687000Y-72517000D02*
X162687000Y-85217000D01*
X162687000Y-72517000D02*
G75*
G03*
X161417000Y-71247000I-1270000J0D01*
G01*
X114427000Y-84201000D02*
G75*
G03*
X113157000Y-85471000I0J-1270000D01*
G01*
X111887000Y-87249000D02*
X105156000Y-87249000D01*
X161417000Y-86487000D02*
X156083000Y-86493334D01*
X113538000Y-77851000D02*
X154559000Y-77851000D01*
X154813000Y-85344000D02*
G75*
G03*
X153543000Y-84194666I-1270000J-127000D01*
G01*
X154813000Y-85344000D02*
G75*
G03*
X156083000Y-86493334I1270000J127000D01*
G01*
X103886000Y-85979000D02*
G75*
G03*
X105156000Y-87249000I1270000J0D01*
G01*
X99822000Y-70231000D02*
G75*
G03*
X98552000Y-71501000I0J-1270000D01*
G01*
X99822000Y-70231000D02*
X112903000Y-70231000D01*
X102616000Y-77978000D02*
X99822000Y-77978000D01*
X153543000Y-84194666D02*
X114427000Y-84201000D01*
X157099000Y-71247000D02*
X161417000Y-71247000D01*
D11*
%TO.C,J1*%
X157099801Y-79419299D02*
X157099801Y-82416499D01*
X157506201Y-82822899D02*
X161163801Y-82822899D01*
X161163801Y-79012899D02*
X157506201Y-79012899D01*
X161570201Y-82416499D02*
X161570201Y-79419299D01*
X157506201Y-79012899D02*
G75*
G03*
X157099801Y-79419299I1J-406401D01*
G01*
X157099801Y-82416499D02*
G75*
G03*
X157506201Y-82822899I406401J1D01*
G01*
X161570201Y-79419299D02*
G75*
G03*
X161163801Y-79012899I-406400J0D01*
G01*
X161163801Y-82822899D02*
G75*
G03*
X161570201Y-82416499I0J406400D01*
G01*
%TO.C,J2*%
X105079800Y-76001600D02*
X105079800Y-72852000D01*
X105435400Y-72496400D02*
X111683800Y-72496400D01*
X111683800Y-76357200D02*
X105435400Y-76357200D01*
X112039400Y-72852000D02*
X112039400Y-76001600D01*
X105435400Y-72496400D02*
G75*
G03*
X105079800Y-72852000I1J-355601D01*
G01*
X105079800Y-76001600D02*
G75*
G03*
X105435400Y-76357200I355601J1D01*
G01*
X112039400Y-72852000D02*
G75*
G03*
X111683800Y-72496400I-355600J0D01*
G01*
X111683800Y-76357200D02*
G75*
G03*
X112039400Y-76001600I0J355600D01*
G01*
%TD*%
M02*
