M48
; DRILL file {KiCad 7.0.1} date Wed Apr 12 12:59:03 2023
; FORMAT={-:-/ absolute / inch / decimal}
; #@! TF.CreationDate,2023-04-12T12:59:03-04:00
; #@! TF.GenerationSoftware,Kicad,Pcbnew,7.0.1
; #@! TF.FileFunction,Plated,1,2,PTH
FMAT,2
INCH
; #@! TA.AperFunction,Plated,PTH,ViaDrill
T1C0.0118
; #@! TA.AperFunction,Plated,PTH,ViaDrill
T2C0.0157
; #@! TA.AperFunction,Plated,PTH,ComponentDrill
T3C0.1063
%
G90
G05
T1
X4.36Y-2.795
X4.36Y-2.82
X4.385Y-2.795
X4.386Y-2.822
X5.505Y-3.155
X5.535Y-3.155
X5.948Y-3.15
X5.965Y-3.131
X5.982Y-3.15
X6.156Y-2.922
X6.178Y-2.846
X6.178Y-3.006
X6.224Y-3.062
X6.224Y-3.088
X6.224Y-3.288
X6.224Y-3.314
T2
X4.275Y-3.14
X4.275Y-3.185
X4.275Y-3.23
X5.08Y-3.274
X5.14Y-3.274
X5.23Y-3.145
X5.23Y-3.185
X5.23Y-3.225
X5.686Y-3.18
X5.756Y-3.154
X5.815Y-3.155
T3
X4.001Y-2.925
X6.27Y-2.925
T0
M30
