M48
; DRILL file {KiCad 7.0.1} date Wed Mar 29 08:45:09 2023
; FORMAT={-:-/ absolute / inch / decimal}
; #@! TF.CreationDate,2023-03-29T08:45:09-04:00
; #@! TF.GenerationSoftware,Kicad,Pcbnew,7.0.1
; #@! TF.FileFunction,Plated,1,2,PTH
FMAT,2
INCH
; #@! TA.AperFunction,Plated,PTH,ViaDrill
T1C0.0118
; #@! TA.AperFunction,Plated,PTH,ComponentDrill
T2C0.1063
%
G90
G05
T1
X4.275Y-3.145
X4.275Y-3.225
X4.375Y-2.805
X4.375Y-2.83
X5.16Y-3.279
X5.22Y-3.279
X5.315Y-3.19
X5.645Y-3.265
X5.67Y-3.265
X5.73Y-3.115
X5.75Y-3.1
X5.75Y-3.13
X5.815Y-3.265
X5.88Y-3.265
X6.17Y-2.835
X6.175Y-3.015
X6.225Y-3.285
X6.225Y-3.315
X6.37Y-2.84
X6.37Y-3.015
T2
X4.001Y-2.925
X6.27Y-2.925
T0
M30
