%TF.GenerationSoftware,KiCad,Pcbnew,7.0.1*%
%TF.CreationDate,2023-03-29T08:45:06-04:00*%
%TF.ProjectId,BuckarooHAT,4275636b-6172-46f6-9f48-41542e6b6963,rev?*%
%TF.SameCoordinates,Original*%
%TF.FileFunction,Copper,L1,Top*%
%TF.FilePolarity,Positive*%
%FSLAX46Y46*%
G04 Gerber Fmt 4.6, Leading zero omitted, Abs format (unit mm)*
G04 Created by KiCad (PCBNEW 7.0.1) date 2023-03-29 08:45:06*
%MOMM*%
%LPD*%
G01*
G04 APERTURE LIST*
G04 Aperture macros list*
%AMRoundRect*
0 Rectangle with rounded corners*
0 $1 Rounding radius*
0 $2 $3 $4 $5 $6 $7 $8 $9 X,Y pos of 4 corners*
0 Add a 4 corners polygon primitive as box body*
4,1,4,$2,$3,$4,$5,$6,$7,$8,$9,$2,$3,0*
0 Add four circle primitives for the rounded corners*
1,1,$1+$1,$2,$3*
1,1,$1+$1,$4,$5*
1,1,$1+$1,$6,$7*
1,1,$1+$1,$8,$9*
0 Add four rect primitives between the rounded corners*
20,1,$1+$1,$2,$3,$4,$5,0*
20,1,$1+$1,$4,$5,$6,$7,0*
20,1,$1+$1,$6,$7,$8,$9,0*
20,1,$1+$1,$8,$9,$2,$3,0*%
%AMFreePoly0*
4,1,19,0.550000,-0.750000,0.000000,-0.750000,0.000000,-0.744911,-0.071157,-0.744911,-0.207708,-0.704816,-0.327430,-0.627875,-0.420627,-0.520320,-0.479746,-0.390866,-0.500000,-0.250000,-0.500000,0.250000,-0.479746,0.390866,-0.420627,0.520320,-0.327430,0.627875,-0.207708,0.704816,-0.071157,0.744911,0.000000,0.744911,0.000000,0.750000,0.550000,0.750000,0.550000,-0.750000,0.550000,-0.750000,
$1*%
%AMFreePoly1*
4,1,19,0.000000,0.744911,0.071157,0.744911,0.207708,0.704816,0.327430,0.627875,0.420627,0.520320,0.479746,0.390866,0.500000,0.250000,0.500000,-0.250000,0.479746,-0.390866,0.420627,-0.520320,0.327430,-0.627875,0.207708,-0.704816,0.071157,-0.744911,0.000000,-0.744911,0.000000,-0.750000,-0.550000,-0.750000,-0.550000,0.750000,0.000000,0.750000,0.000000,0.744911,0.000000,0.744911,
$1*%
G04 Aperture macros list end*
%TA.AperFunction,SMDPad,CuDef*%
%ADD10RoundRect,0.237500X-0.237500X0.300000X-0.237500X-0.300000X0.237500X-0.300000X0.237500X0.300000X0*%
%TD*%
%TA.AperFunction,SMDPad,CuDef*%
%ADD11RoundRect,0.250000X-0.337500X-0.475000X0.337500X-0.475000X0.337500X0.475000X-0.337500X0.475000X0*%
%TD*%
%TA.AperFunction,ComponentPad*%
%ADD12C,3.100000*%
%TD*%
%TA.AperFunction,ConnectorPad*%
%ADD13C,4.500000*%
%TD*%
%TA.AperFunction,SMDPad,CuDef*%
%ADD14RoundRect,0.237500X0.237500X-0.250000X0.237500X0.250000X-0.237500X0.250000X-0.237500X-0.250000X0*%
%TD*%
%TA.AperFunction,SMDPad,CuDef*%
%ADD15R,1.000000X1.550000*%
%TD*%
%TA.AperFunction,SMDPad,CuDef*%
%ADD16RoundRect,0.150000X-0.512500X-0.150000X0.512500X-0.150000X0.512500X0.150000X-0.512500X0.150000X0*%
%TD*%
%TA.AperFunction,SMDPad,CuDef*%
%ADD17R,2.400000X4.200000*%
%TD*%
%TA.AperFunction,SMDPad,CuDef*%
%ADD18RoundRect,0.237500X-0.237500X0.250000X-0.237500X-0.250000X0.237500X-0.250000X0.237500X0.250000X0*%
%TD*%
%TA.AperFunction,SMDPad,CuDef*%
%ADD19R,1.200000X3.600000*%
%TD*%
%TA.AperFunction,SMDPad,CuDef*%
%ADD20R,1.880000X2.540000*%
%TD*%
%TA.AperFunction,SMDPad,CuDef*%
%ADD21R,1.350000X0.960000*%
%TD*%
%TA.AperFunction,SMDPad,CuDef*%
%ADD22FreePoly0,90.000000*%
%TD*%
%TA.AperFunction,SMDPad,CuDef*%
%ADD23R,1.500000X1.000000*%
%TD*%
%TA.AperFunction,SMDPad,CuDef*%
%ADD24FreePoly1,90.000000*%
%TD*%
%TA.AperFunction,ViaPad*%
%ADD25C,0.600000*%
%TD*%
%TA.AperFunction,Conductor*%
%ADD26C,0.600000*%
%TD*%
%TA.AperFunction,Conductor*%
%ADD27C,0.500000*%
%TD*%
%TA.AperFunction,Conductor*%
%ADD28C,0.400000*%
%TD*%
%TA.AperFunction,Conductor*%
%ADD29C,0.800000*%
%TD*%
G04 APERTURE END LIST*
D10*
%TO.P,C4,1*%
%TO.N,+5V*%
X132588000Y-81560500D03*
%TO.P,C4,2*%
%TO.N,GND*%
X132588000Y-83285500D03*
%TD*%
D11*
%TO.P,C1,1*%
%TO.N,/+12v*%
X143742500Y-79121000D03*
%TO.P,C1,2*%
%TO.N,GND*%
X145817500Y-79121000D03*
%TD*%
D12*
%TO.P,H1,1*%
%TO.N,N/C*%
X159258000Y-74295000D03*
D13*
X159258000Y-74295000D03*
%TD*%
D14*
%TO.P,R1,1*%
%TO.N,+5V*%
X147701000Y-82954500D03*
%TO.P,R1,2*%
%TO.N,/fb_in*%
X147701000Y-81129500D03*
%TD*%
D15*
%TO.P,J2,1,Pin_1*%
%TO.N,+3.3V*%
X105994200Y-77301800D03*
%TO.P,J2,2,Pin_2*%
%TO.N,+5V*%
X105994200Y-71551800D03*
%TO.P,J2,3,Pin_3*%
%TO.N,unconnected-(J2-Pin_3-Pad3)*%
X108534200Y-77301800D03*
%TO.P,J2,4,Pin_4*%
%TO.N,+5V*%
X108534200Y-71551800D03*
%TO.P,J2,5,Pin_5*%
%TO.N,unconnected-(J2-Pin_5-Pad5)*%
X111074200Y-77301800D03*
%TO.P,J2,6,Pin_6*%
%TO.N,GND*%
X111074200Y-71551800D03*
%TD*%
D16*
%TO.P,U1,1,VIN*%
%TO.N,/+12v*%
X143648000Y-81031000D03*
%TO.P,U1,2,SW*%
%TO.N,/sw_out*%
X143648000Y-81981000D03*
%TO.P,U1,3,GND*%
%TO.N,GND*%
X143648000Y-82931000D03*
%TO.P,U1,4,BST*%
%TO.N,Net-(U1-BST)*%
X145923000Y-82931000D03*
%TO.P,U1,5,EN*%
%TO.N,unconnected-(U1-EN-Pad5)*%
X145923000Y-81981000D03*
%TO.P,U1,6,FB*%
%TO.N,/fb_in*%
X145923000Y-81031000D03*
%TD*%
D10*
%TO.P,C3,1*%
%TO.N,+5V*%
X131064000Y-81560500D03*
%TO.P,C3,2*%
%TO.N,GND*%
X131064000Y-83285500D03*
%TD*%
D17*
%TO.P,L1,1,1*%
%TO.N,/sw_out*%
X139446000Y-81026000D03*
%TO.P,L1,2,2*%
%TO.N,+5V*%
X134946000Y-81026000D03*
%TD*%
D18*
%TO.P,R2,1*%
%TO.N,/fb_in*%
X149352000Y-81129500D03*
%TO.P,R2,2*%
%TO.N,GND*%
X149352000Y-82954500D03*
%TD*%
D19*
%TO.P,J3,1,Pin_1*%
%TO.N,+5V*%
X106045000Y-80899000D03*
%TO.P,J3,2,Pin_2*%
%TO.N,GND*%
X108585000Y-80899000D03*
%TO.P,J3,3,Pin_3*%
%TO.N,+3.3V*%
X111125000Y-80899000D03*
%TD*%
D10*
%TO.P,C2,1*%
%TO.N,/sw_out*%
X141859000Y-81433500D03*
%TO.P,C2,2*%
%TO.N,Net-(U1-BST)*%
X141859000Y-83158500D03*
%TD*%
D12*
%TO.P,H2,1*%
%TO.N,N/C*%
X101625400Y-74295000D03*
D13*
X101625400Y-74295000D03*
%TD*%
D20*
%TO.P,D1,1,K*%
%TO.N,/vsplit*%
X154305000Y-80391000D03*
D21*
%TO.P,D1,2,A*%
%TO.N,VCC*%
X154305000Y-82741000D03*
%TD*%
D15*
%TO.P,J1,1,Pin_1*%
%TO.N,GND*%
X158065001Y-83792899D03*
%TO.P,J1,2,Pin_2*%
%TO.N,unconnected-(J1-Pin_2-Pad2)*%
X158065001Y-78042899D03*
%TO.P,J1,3,Pin_3*%
%TO.N,VCC*%
X160605001Y-83792899D03*
%TO.P,J1,4,Pin_4*%
%TO.N,unconnected-(J1-Pin_4-Pad4)*%
X160605001Y-78042899D03*
%TD*%
D22*
%TO.P,JP1,1,A*%
%TO.N,+5V*%
X151511000Y-82199000D03*
D23*
%TO.P,JP1,2,C*%
%TO.N,/vsplit*%
X151511000Y-80899000D03*
D24*
%TO.P,JP1,3,B*%
%TO.N,/+12v*%
X151511000Y-79599000D03*
%TD*%
D25*
%TO.N,GND*%
X161798000Y-72136000D03*
X108585000Y-81915000D03*
X108585000Y-79883000D03*
X158115000Y-83439000D03*
X145542000Y-79121000D03*
X144018000Y-82931000D03*
X132588000Y-83285500D03*
X111125000Y-71247000D03*
X156845000Y-76581000D03*
X146050000Y-78740000D03*
X143383000Y-82931000D03*
X131064000Y-83285500D03*
X158115000Y-84201000D03*
X156718000Y-72009000D03*
X161798000Y-76581000D03*
X111125000Y-71882000D03*
X149352000Y-82931000D03*
X146050000Y-79502000D03*
%TO.N,+5V*%
X135001000Y-81026000D03*
X147701000Y-82931000D03*
%TD*%
D26*
%TO.N,GND*%
X131064000Y-83285500D02*
X132588000Y-83285500D01*
%TO.N,/sw_out*%
X142406500Y-81981000D02*
X141859000Y-81433500D01*
X143648000Y-81981000D02*
X142406500Y-81981000D01*
D27*
%TO.N,Net-(U1-BST)*%
X142333900Y-83633400D02*
X145220600Y-83633400D01*
X145220600Y-83633400D02*
X145923000Y-82931000D01*
X141859000Y-83158500D02*
X142333900Y-83633400D01*
D26*
%TO.N,+5V*%
X130556000Y-81560500D02*
X132080000Y-81560500D01*
X147701000Y-82954500D02*
X147701000Y-82931000D01*
%TO.N,+3.3V*%
X111125000Y-80264000D02*
X109390200Y-78529200D01*
X109390200Y-78529200D02*
X107221600Y-78529200D01*
X111125000Y-80899000D02*
X111125000Y-80264000D01*
X107221600Y-78529200D02*
X105994200Y-77301800D01*
D28*
%TO.N,/fb_in*%
X145923000Y-81031000D02*
X147602500Y-81031000D01*
X147602500Y-81031000D02*
X147701000Y-81129500D01*
D27*
X149352000Y-81129500D02*
X147701000Y-81129500D01*
D29*
%TO.N,/vsplit*%
X153797000Y-80899000D02*
X154305000Y-80391000D01*
X151511000Y-80899000D02*
X153797000Y-80899000D01*
%TD*%
%TA.AperFunction,Conductor*%
%TO.N,+5V*%
G36*
X105372999Y-70444123D02*
G01*
X105409037Y-70478774D01*
X105423549Y-70526615D01*
X105412833Y-70575448D01*
X105397982Y-70592158D01*
X105397097Y-70601142D01*
X105994199Y-71198244D01*
X106591301Y-70601142D01*
X106590417Y-70592160D01*
X106575564Y-70575446D01*
X106564849Y-70526614D01*
X106579361Y-70478773D01*
X106615399Y-70444123D01*
X106663773Y-70431500D01*
X107864625Y-70431500D01*
X107912999Y-70444123D01*
X107949037Y-70478774D01*
X107963549Y-70526615D01*
X107952833Y-70575448D01*
X107937982Y-70592158D01*
X107937097Y-70601142D01*
X108534199Y-71198244D01*
X109131301Y-70601142D01*
X109130417Y-70592160D01*
X109115564Y-70575446D01*
X109104849Y-70526614D01*
X109119361Y-70478773D01*
X109155399Y-70444123D01*
X109203773Y-70431500D01*
X110403729Y-70431500D01*
X110452102Y-70444123D01*
X110488140Y-70478773D01*
X110502653Y-70526613D01*
X110491939Y-70575445D01*
X110458731Y-70612815D01*
X110429647Y-70632247D01*
X110385333Y-70698568D01*
X110373700Y-70757053D01*
X110373700Y-72095300D01*
X110360437Y-72144800D01*
X110324200Y-72181037D01*
X110274700Y-72194300D01*
X109333200Y-72194300D01*
X109283700Y-72181037D01*
X109247463Y-72144800D01*
X109234200Y-72095300D01*
X109234200Y-71205352D01*
X108604202Y-71835349D01*
X108559822Y-71860972D01*
X108508576Y-71860972D01*
X108464195Y-71835349D01*
X107834200Y-71205354D01*
X107834200Y-72095300D01*
X107820937Y-72144800D01*
X107784700Y-72181037D01*
X107735200Y-72194300D01*
X106793200Y-72194300D01*
X106743700Y-72181037D01*
X106707463Y-72144800D01*
X106694200Y-72095300D01*
X106694200Y-71205352D01*
X106064202Y-71835349D01*
X106019822Y-71860972D01*
X105968576Y-71860972D01*
X105924195Y-71835349D01*
X105294200Y-71205354D01*
X105294200Y-72095300D01*
X105280937Y-72144800D01*
X105244700Y-72181037D01*
X105195200Y-72194300D01*
X104932437Y-72194300D01*
X104921604Y-72199516D01*
X104900690Y-72206834D01*
X104888968Y-72209510D01*
X104879565Y-72217008D01*
X104860803Y-72228797D01*
X104849975Y-72234012D01*
X104842479Y-72243411D01*
X104826811Y-72259079D01*
X104817412Y-72266575D01*
X104812197Y-72277403D01*
X104800408Y-72296165D01*
X104792910Y-72305568D01*
X104790234Y-72317290D01*
X104782916Y-72338204D01*
X104777700Y-72349037D01*
X104777700Y-76504563D01*
X104782915Y-76515393D01*
X104790235Y-76536314D01*
X104792909Y-76548029D01*
X104792910Y-76548031D01*
X104800405Y-76557429D01*
X104812197Y-76576196D01*
X104817411Y-76587024D01*
X104826804Y-76594514D01*
X104842481Y-76610190D01*
X104849976Y-76619588D01*
X104860799Y-76624800D01*
X104860801Y-76624801D01*
X104879572Y-76636596D01*
X104888969Y-76644090D01*
X104900676Y-76646762D01*
X104900681Y-76646763D01*
X104921605Y-76654083D01*
X104932437Y-76659300D01*
X104955610Y-76659300D01*
X105023963Y-76659300D01*
X105194700Y-76659300D01*
X105244200Y-76672563D01*
X105280437Y-76708800D01*
X105293700Y-76758300D01*
X105293700Y-78096547D01*
X105305333Y-78155031D01*
X105349647Y-78221352D01*
X105382044Y-78242999D01*
X105415969Y-78265667D01*
X105474452Y-78277300D01*
X106220878Y-78277300D01*
X106258764Y-78284836D01*
X106290882Y-78306296D01*
X106714582Y-78729996D01*
X106741676Y-78780686D01*
X106736042Y-78837886D01*
X106699579Y-78882315D01*
X106644578Y-78899000D01*
X106295001Y-78899000D01*
X106295000Y-78899001D01*
X106295000Y-80648999D01*
X106295001Y-80649000D01*
X106844999Y-80649000D01*
X106845000Y-80648999D01*
X106845000Y-79069551D01*
X106847068Y-79069551D01*
X106849622Y-79032662D01*
X106878968Y-78989784D01*
X106925986Y-78967674D01*
X106977727Y-78972420D01*
X106979266Y-78972994D01*
X106979269Y-78972996D01*
X107026635Y-78990662D01*
X107033160Y-78993365D01*
X107079143Y-79014365D01*
X107086578Y-79015433D01*
X107107081Y-79020666D01*
X107114117Y-79023291D01*
X107164557Y-79026898D01*
X107171559Y-79027652D01*
X107178883Y-79028705D01*
X107185799Y-79029700D01*
X107185801Y-79029700D01*
X107200182Y-79029700D01*
X107207244Y-79029952D01*
X107257673Y-79033559D01*
X107265009Y-79031962D01*
X107286054Y-79029700D01*
X107685500Y-79029700D01*
X107735000Y-79042963D01*
X107771237Y-79079200D01*
X107784500Y-79128700D01*
X107784500Y-82718747D01*
X107796133Y-82777231D01*
X107840447Y-82843552D01*
X107884762Y-82873162D01*
X107906769Y-82887867D01*
X107965252Y-82899500D01*
X109204747Y-82899500D01*
X109204748Y-82899500D01*
X109263231Y-82887867D01*
X109329552Y-82843552D01*
X109373867Y-82777231D01*
X109385500Y-82718748D01*
X109385500Y-79471322D01*
X109402185Y-79416321D01*
X109446614Y-79379858D01*
X109503814Y-79374224D01*
X109554504Y-79401318D01*
X110295504Y-80142318D01*
X110316964Y-80174436D01*
X110324500Y-80212322D01*
X110324500Y-82718747D01*
X110336133Y-82777231D01*
X110380447Y-82843552D01*
X110424762Y-82873162D01*
X110446769Y-82887867D01*
X110505252Y-82899500D01*
X111744747Y-82899500D01*
X111744748Y-82899500D01*
X111803231Y-82887867D01*
X111869552Y-82843552D01*
X111913867Y-82777231D01*
X111925500Y-82718748D01*
X111925500Y-81913201D01*
X130389000Y-81913201D01*
X130391771Y-81942757D01*
X130435329Y-82067238D01*
X130513646Y-82173353D01*
X130619761Y-82251670D01*
X130744242Y-82295228D01*
X130773799Y-82298000D01*
X130813999Y-82298000D01*
X130814000Y-82297999D01*
X131314000Y-82297999D01*
X131314001Y-82298000D01*
X131354201Y-82298000D01*
X131383757Y-82295228D01*
X131508238Y-82251670D01*
X131614353Y-82173353D01*
X131692670Y-82067238D01*
X131732556Y-81953253D01*
X131768712Y-81905210D01*
X131826000Y-81886951D01*
X131883288Y-81905210D01*
X131919444Y-81953253D01*
X131959329Y-82067238D01*
X132037646Y-82173353D01*
X132143761Y-82251670D01*
X132268242Y-82295228D01*
X132297799Y-82298000D01*
X132337999Y-82298000D01*
X132338000Y-82297999D01*
X132838000Y-82297999D01*
X132838001Y-82298000D01*
X132878201Y-82298000D01*
X132907757Y-82295228D01*
X133032238Y-82251670D01*
X133138353Y-82173353D01*
X133216670Y-82067238D01*
X133260228Y-81942757D01*
X133263000Y-81913201D01*
X133263000Y-81810501D01*
X133262999Y-81810500D01*
X132838001Y-81810500D01*
X132838000Y-81810501D01*
X132838000Y-82297999D01*
X132338000Y-82297999D01*
X132338000Y-81310499D01*
X132838000Y-81310499D01*
X132838001Y-81310500D01*
X133262999Y-81310500D01*
X133263000Y-81310499D01*
X133263000Y-81207799D01*
X133260228Y-81178242D01*
X133216670Y-81053761D01*
X133138353Y-80947646D01*
X133032238Y-80869329D01*
X132907757Y-80825771D01*
X132878201Y-80823000D01*
X132838001Y-80823000D01*
X132838000Y-80823001D01*
X132838000Y-81310499D01*
X132338000Y-81310499D01*
X132338000Y-80823001D01*
X132337999Y-80823000D01*
X132297799Y-80823000D01*
X132268242Y-80825771D01*
X132143761Y-80869329D01*
X132037646Y-80947646D01*
X131959329Y-81053761D01*
X131919444Y-81167746D01*
X131883288Y-81215789D01*
X131826000Y-81234048D01*
X131768712Y-81215789D01*
X131732556Y-81167746D01*
X131692670Y-81053761D01*
X131614353Y-80947646D01*
X131508238Y-80869329D01*
X131383757Y-80825771D01*
X131354201Y-80823000D01*
X131314001Y-80823000D01*
X131314000Y-80823001D01*
X131314000Y-82297999D01*
X130814000Y-82297999D01*
X130814000Y-81810501D01*
X130813999Y-81810500D01*
X130389001Y-81810500D01*
X130389000Y-81810501D01*
X130389000Y-81913201D01*
X111925500Y-81913201D01*
X111925500Y-81310499D01*
X130389000Y-81310499D01*
X130389001Y-81310500D01*
X130813999Y-81310500D01*
X130814000Y-81310499D01*
X130814000Y-80823001D01*
X130813999Y-80823000D01*
X130773799Y-80823000D01*
X130744242Y-80825771D01*
X130619761Y-80869329D01*
X130513646Y-80947646D01*
X130435329Y-81053761D01*
X130391771Y-81178242D01*
X130389000Y-81207799D01*
X130389000Y-81310499D01*
X111925500Y-81310499D01*
X111925500Y-80775999D01*
X133546000Y-80775999D01*
X133546001Y-80776000D01*
X134695999Y-80776000D01*
X134696000Y-80775999D01*
X135196000Y-80775999D01*
X135196001Y-80776000D01*
X136345999Y-80776000D01*
X136346000Y-80775999D01*
X136346000Y-78906303D01*
X136334395Y-78847963D01*
X136290192Y-78781807D01*
X136224036Y-78737604D01*
X136165697Y-78726000D01*
X135196001Y-78726000D01*
X135196000Y-78726001D01*
X135196000Y-80775999D01*
X134696000Y-80775999D01*
X134696000Y-78726001D01*
X134695999Y-78726000D01*
X133726303Y-78726000D01*
X133667963Y-78737604D01*
X133601807Y-78781807D01*
X133557604Y-78847963D01*
X133546000Y-78906303D01*
X133546000Y-80775999D01*
X111925500Y-80775999D01*
X111925500Y-79079252D01*
X111913867Y-79020769D01*
X111894575Y-78991897D01*
X111869552Y-78954447D01*
X111803231Y-78910133D01*
X111776390Y-78904794D01*
X111744748Y-78898500D01*
X110508322Y-78898500D01*
X110470436Y-78890964D01*
X110438318Y-78869504D01*
X109789680Y-78220866D01*
X109776398Y-78204382D01*
X109772342Y-78198071D01*
X109734148Y-78164976D01*
X109728977Y-78160162D01*
X109718796Y-78149982D01*
X109718795Y-78149981D01*
X109718793Y-78149979D01*
X109707262Y-78141347D01*
X109701775Y-78136925D01*
X109663573Y-78103823D01*
X109663572Y-78103822D01*
X109656744Y-78100704D01*
X109638545Y-78089906D01*
X109632530Y-78085403D01*
X109585170Y-78067739D01*
X109578642Y-78065035D01*
X109532657Y-78044035D01*
X109525217Y-78042965D01*
X109504718Y-78037732D01*
X109497686Y-78035109D01*
X109447261Y-78031502D01*
X109440241Y-78030747D01*
X109425999Y-78028700D01*
X109411618Y-78028700D01*
X109404556Y-78028448D01*
X109402922Y-78028331D01*
X109354127Y-78024841D01*
X109354125Y-78024841D01*
X109339930Y-78023826D01*
X109339955Y-78023472D01*
X109296908Y-78019879D01*
X109251714Y-77983461D01*
X109234700Y-77927970D01*
X109234700Y-76758300D01*
X109247963Y-76708800D01*
X109284200Y-76672563D01*
X109333700Y-76659300D01*
X110274700Y-76659300D01*
X110324200Y-76672563D01*
X110360437Y-76708800D01*
X110373700Y-76758300D01*
X110373700Y-78096547D01*
X110385333Y-78155031D01*
X110429647Y-78221352D01*
X110462044Y-78242999D01*
X110495969Y-78265667D01*
X110554452Y-78277300D01*
X111593947Y-78277300D01*
X111593948Y-78277300D01*
X111652431Y-78265667D01*
X111718752Y-78221352D01*
X111763067Y-78155031D01*
X111774700Y-78096548D01*
X111774700Y-76758300D01*
X111787963Y-76708800D01*
X111824200Y-76672563D01*
X111873700Y-76659300D01*
X112135962Y-76659300D01*
X112135963Y-76659300D01*
X112146792Y-76654084D01*
X112167711Y-76646764D01*
X112179431Y-76644090D01*
X112188828Y-76636595D01*
X112207601Y-76624800D01*
X112218422Y-76619589D01*
X112218422Y-76619588D01*
X112218424Y-76619588D01*
X112225919Y-76610188D01*
X112241588Y-76594519D01*
X112250988Y-76587024D01*
X112256199Y-76576201D01*
X112268002Y-76557420D01*
X112272105Y-76552276D01*
X112322100Y-76518876D01*
X112382202Y-76520566D01*
X112430242Y-76556722D01*
X112448500Y-76614009D01*
X112448500Y-77896763D01*
X112453715Y-77907593D01*
X112461035Y-77928514D01*
X112463709Y-77940229D01*
X112463710Y-77940231D01*
X112471205Y-77949629D01*
X112482997Y-77968396D01*
X112488211Y-77979224D01*
X112497604Y-77986714D01*
X112513281Y-78002390D01*
X112520776Y-78011788D01*
X112531601Y-78017001D01*
X112550372Y-78028796D01*
X112559769Y-78036290D01*
X112571481Y-78038963D01*
X112592405Y-78046283D01*
X112603237Y-78051500D01*
X112603238Y-78051500D01*
X136934000Y-78051500D01*
X136983500Y-78064763D01*
X137019737Y-78101000D01*
X137033000Y-78150500D01*
X137033000Y-83897855D01*
X137019739Y-83947350D01*
X136983509Y-83983586D01*
X136934016Y-83996854D01*
X136002941Y-83997005D01*
X133261962Y-83997449D01*
X133210071Y-83982770D01*
X133173572Y-83943071D01*
X133163296Y-83890132D01*
X133182291Y-83839661D01*
X133217116Y-83792475D01*
X133260725Y-83667849D01*
X133263500Y-83638256D01*
X133263500Y-83145697D01*
X133546000Y-83145697D01*
X133557604Y-83204036D01*
X133601807Y-83270192D01*
X133667963Y-83314395D01*
X133726303Y-83326000D01*
X134695999Y-83326000D01*
X134696000Y-83325999D01*
X135196000Y-83325999D01*
X135196001Y-83326000D01*
X136165697Y-83326000D01*
X136224036Y-83314395D01*
X136290192Y-83270192D01*
X136334395Y-83204036D01*
X136346000Y-83145697D01*
X136346000Y-81276001D01*
X136345999Y-81276000D01*
X135196001Y-81276000D01*
X135196000Y-81276001D01*
X135196000Y-83325999D01*
X134696000Y-83325999D01*
X134696000Y-81276001D01*
X134695999Y-81276000D01*
X133546001Y-81276000D01*
X133546000Y-81276001D01*
X133546000Y-83145697D01*
X133263500Y-83145697D01*
X133263500Y-82932744D01*
X133260725Y-82903151D01*
X133259272Y-82899000D01*
X133217116Y-82778525D01*
X133192217Y-82744788D01*
X133138711Y-82672289D01*
X133032475Y-82593884D01*
X133032474Y-82593883D01*
X132907851Y-82550275D01*
X132896011Y-82549164D01*
X132878256Y-82547500D01*
X132297744Y-82547500D01*
X132282947Y-82548887D01*
X132268148Y-82550275D01*
X132143525Y-82593883D01*
X132037288Y-82672289D01*
X131983782Y-82744788D01*
X131948742Y-82774377D01*
X131904127Y-82785000D01*
X131747873Y-82785000D01*
X131703258Y-82774377D01*
X131668218Y-82744788D01*
X131614711Y-82672289D01*
X131508474Y-82593883D01*
X131383851Y-82550275D01*
X131372011Y-82549164D01*
X131354256Y-82547500D01*
X130773744Y-82547500D01*
X130758947Y-82548887D01*
X130744148Y-82550275D01*
X130619525Y-82593883D01*
X130513289Y-82672289D01*
X130434883Y-82778525D01*
X130391275Y-82903148D01*
X130388500Y-82932747D01*
X130388500Y-83638253D01*
X130391275Y-83667851D01*
X130434883Y-83792474D01*
X130470052Y-83840126D01*
X130489046Y-83890589D01*
X130478778Y-83943522D01*
X130442292Y-83983222D01*
X130390413Y-83997914D01*
X114429078Y-84000500D01*
X114321825Y-84000500D01*
X114113628Y-84030433D01*
X113911800Y-84089696D01*
X113720463Y-84177076D01*
X113543512Y-84290796D01*
X113384544Y-84428544D01*
X113246796Y-84587512D01*
X113133076Y-84764463D01*
X113045696Y-84955800D01*
X112986433Y-85157628D01*
X112956500Y-85365825D01*
X112956500Y-85974681D01*
X112956123Y-85983310D01*
X112941007Y-86156085D01*
X112938011Y-86173079D01*
X112894241Y-86336429D01*
X112888338Y-86352645D01*
X112816875Y-86505897D01*
X112808247Y-86520842D01*
X112711255Y-86659362D01*
X112700163Y-86672582D01*
X112580582Y-86792163D01*
X112567362Y-86803255D01*
X112428842Y-86900247D01*
X112413897Y-86908875D01*
X112260645Y-86980338D01*
X112244429Y-86986241D01*
X112081079Y-87030011D01*
X112064085Y-87033007D01*
X111938230Y-87044017D01*
X111891308Y-87048123D01*
X111882681Y-87048500D01*
X105160319Y-87048500D01*
X105151691Y-87048123D01*
X104978915Y-87033007D01*
X104961920Y-87030011D01*
X104798570Y-86986241D01*
X104782354Y-86980338D01*
X104629102Y-86908875D01*
X104614157Y-86900247D01*
X104475637Y-86803255D01*
X104462417Y-86792163D01*
X104342836Y-86672582D01*
X104331744Y-86659362D01*
X104234752Y-86520842D01*
X104226124Y-86505897D01*
X104154661Y-86352645D01*
X104148758Y-86336429D01*
X104136954Y-86292376D01*
X104104986Y-86173072D01*
X104101993Y-86156092D01*
X104086877Y-85983309D01*
X104086500Y-85974681D01*
X104086500Y-82718697D01*
X105245000Y-82718697D01*
X105256604Y-82777036D01*
X105300807Y-82843192D01*
X105366963Y-82887395D01*
X105425303Y-82899000D01*
X105794999Y-82899000D01*
X105795000Y-82898999D01*
X106295000Y-82898999D01*
X106295001Y-82899000D01*
X106664697Y-82899000D01*
X106723036Y-82887395D01*
X106789192Y-82843192D01*
X106833395Y-82777036D01*
X106845000Y-82718697D01*
X106845000Y-81149001D01*
X106844999Y-81149000D01*
X106295001Y-81149000D01*
X106295000Y-81149001D01*
X106295000Y-82898999D01*
X105795000Y-82898999D01*
X105795000Y-81149001D01*
X105794999Y-81149000D01*
X105245001Y-81149000D01*
X105245000Y-81149001D01*
X105245000Y-82718697D01*
X104086500Y-82718697D01*
X104086500Y-80648999D01*
X105245000Y-80648999D01*
X105245001Y-80649000D01*
X105794999Y-80649000D01*
X105795000Y-80648999D01*
X105795000Y-78899001D01*
X105794999Y-78899000D01*
X105425303Y-78899000D01*
X105366963Y-78910604D01*
X105300807Y-78954807D01*
X105256604Y-79020963D01*
X105245000Y-79079303D01*
X105245000Y-80648999D01*
X104086500Y-80648999D01*
X104086500Y-79142825D01*
X104056566Y-78934628D01*
X104043745Y-78890964D01*
X103997304Y-78732800D01*
X103909924Y-78541464D01*
X103796203Y-78364511D01*
X103658456Y-78205544D01*
X103499489Y-78067797D01*
X103322536Y-77954076D01*
X103131200Y-77866696D01*
X103059408Y-77845616D01*
X102929371Y-77807433D01*
X102721175Y-77777500D01*
X102721172Y-77777500D01*
X102638590Y-77777500D01*
X99826319Y-77777500D01*
X99817691Y-77777123D01*
X99644915Y-77762007D01*
X99627920Y-77759011D01*
X99464570Y-77715241D01*
X99448354Y-77709338D01*
X99295102Y-77637875D01*
X99280157Y-77629247D01*
X99141637Y-77532255D01*
X99128417Y-77521163D01*
X99008836Y-77401582D01*
X98997744Y-77388362D01*
X98900752Y-77249842D01*
X98892124Y-77234897D01*
X98820661Y-77081645D01*
X98814758Y-77065429D01*
X98802954Y-77021376D01*
X98770986Y-76902072D01*
X98767993Y-76885092D01*
X98752877Y-76712309D01*
X98752500Y-76703681D01*
X98752500Y-74295000D01*
X99170055Y-74295000D01*
X99189416Y-74602742D01*
X99247192Y-74905612D01*
X99247193Y-74905616D01*
X99247194Y-74905619D01*
X99342478Y-75198873D01*
X99473765Y-75477871D01*
X99638984Y-75738216D01*
X99638986Y-75738218D01*
X99835531Y-75975799D01*
X100060301Y-76186874D01*
X100309763Y-76368118D01*
X100557955Y-76504563D01*
X100579965Y-76516663D01*
X100866657Y-76630172D01*
X101152956Y-76703681D01*
X101165318Y-76706855D01*
X101471225Y-76745500D01*
X101471228Y-76745500D01*
X101779572Y-76745500D01*
X101779575Y-76745500D01*
X102085481Y-76706855D01*
X102085483Y-76706854D01*
X102085486Y-76706854D01*
X102384143Y-76630172D01*
X102670835Y-76516663D01*
X102941040Y-76368116D01*
X103190496Y-76186876D01*
X103415269Y-75975799D01*
X103611816Y-75738216D01*
X103777035Y-75477871D01*
X103908322Y-75198873D01*
X104003606Y-74905619D01*
X104061384Y-74602736D01*
X104080745Y-74295000D01*
X104061384Y-73987264D01*
X104003606Y-73684381D01*
X103908322Y-73391127D01*
X103777035Y-73112129D01*
X103611816Y-72851784D01*
X103415269Y-72614201D01*
X103395142Y-72595300D01*
X103190498Y-72403125D01*
X102941036Y-72221881D01*
X102670836Y-72073337D01*
X102384144Y-71959828D01*
X102085481Y-71883144D01*
X101779575Y-71844500D01*
X101779572Y-71844500D01*
X101471228Y-71844500D01*
X101471225Y-71844500D01*
X101165318Y-71883144D01*
X100866655Y-71959828D01*
X100579963Y-72073337D01*
X100309763Y-72221881D01*
X100060301Y-72403125D01*
X99835531Y-72614200D01*
X99638986Y-72851781D01*
X99473763Y-73112132D01*
X99342479Y-73391124D01*
X99247192Y-73684387D01*
X99189416Y-73987257D01*
X99170055Y-74295000D01*
X98752500Y-74295000D01*
X98752500Y-71505319D01*
X98752877Y-71496691D01*
X98761701Y-71395828D01*
X98767993Y-71323905D01*
X98770986Y-71306929D01*
X98814760Y-71143563D01*
X98820657Y-71127362D01*
X98892126Y-70974097D01*
X98900749Y-70959161D01*
X98997749Y-70820630D01*
X99008830Y-70807423D01*
X99128423Y-70687830D01*
X99141630Y-70676749D01*
X99280161Y-70579749D01*
X99295097Y-70571126D01*
X99448362Y-70499657D01*
X99464563Y-70493760D01*
X99627929Y-70449986D01*
X99644905Y-70446993D01*
X99817690Y-70431877D01*
X99826319Y-70431500D01*
X99861882Y-70431500D01*
X105324625Y-70431500D01*
X105372999Y-70444123D01*
G37*
%TD.AperFunction*%
%TD*%
%TA.AperFunction,Conductor*%
%TO.N,GND*%
G36*
X161421309Y-71447877D02*
G01*
X161594092Y-71462993D01*
X161611072Y-71465986D01*
X161774433Y-71509759D01*
X161790641Y-71515659D01*
X161943897Y-71587124D01*
X161958842Y-71595752D01*
X162097362Y-71692744D01*
X162110582Y-71703836D01*
X162230163Y-71823417D01*
X162241255Y-71836637D01*
X162338247Y-71975157D01*
X162346875Y-71990102D01*
X162418338Y-72143354D01*
X162424241Y-72159570D01*
X162468011Y-72322920D01*
X162471007Y-72339915D01*
X162486123Y-72512691D01*
X162486500Y-72521319D01*
X162486500Y-82578000D01*
X162473237Y-82627500D01*
X162437000Y-82663737D01*
X162387500Y-82677000D01*
X161920501Y-82677000D01*
X161871001Y-82663737D01*
X161834764Y-82627500D01*
X161821501Y-82578000D01*
X161821501Y-78840137D01*
X161816286Y-78829308D01*
X161808964Y-78808380D01*
X161806291Y-78796668D01*
X161798797Y-78787271D01*
X161787002Y-78768500D01*
X161781789Y-78757675D01*
X161772391Y-78750180D01*
X161756715Y-78734503D01*
X161749225Y-78725110D01*
X161738397Y-78719896D01*
X161719630Y-78708104D01*
X161710232Y-78700609D01*
X161710230Y-78700608D01*
X161698515Y-78697934D01*
X161677594Y-78690614D01*
X161666764Y-78685399D01*
X161643591Y-78685399D01*
X161404501Y-78685399D01*
X161355001Y-78672136D01*
X161318764Y-78635899D01*
X161305501Y-78586399D01*
X161305501Y-77248152D01*
X161301367Y-77227369D01*
X161293868Y-77189668D01*
X161279163Y-77167661D01*
X161249553Y-77123346D01*
X161183232Y-77079032D01*
X161183231Y-77079031D01*
X161124749Y-77067399D01*
X160085253Y-77067399D01*
X160056011Y-77073215D01*
X160026769Y-77079032D01*
X159960448Y-77123346D01*
X159916134Y-77189667D01*
X159904501Y-77248152D01*
X159904501Y-78586399D01*
X159891238Y-78635899D01*
X159855001Y-78672136D01*
X159805501Y-78685399D01*
X158864501Y-78685399D01*
X158815001Y-78672136D01*
X158778764Y-78635899D01*
X158765501Y-78586399D01*
X158765501Y-77248152D01*
X158761367Y-77227369D01*
X158753868Y-77189668D01*
X158739163Y-77167661D01*
X158709553Y-77123346D01*
X158643232Y-77079032D01*
X158643231Y-77079031D01*
X158584749Y-77067399D01*
X157545253Y-77067399D01*
X157516011Y-77073215D01*
X157486769Y-77079032D01*
X157420448Y-77123346D01*
X157376134Y-77189667D01*
X157364501Y-77248152D01*
X157364501Y-78586399D01*
X157351238Y-78635899D01*
X157315001Y-78672136D01*
X157265501Y-78685399D01*
X157003238Y-78685399D01*
X156992405Y-78690615D01*
X156971491Y-78697933D01*
X156959769Y-78700609D01*
X156950366Y-78708107D01*
X156931604Y-78719896D01*
X156920776Y-78725111D01*
X156913280Y-78734510D01*
X156897612Y-78750178D01*
X156888213Y-78757674D01*
X156882998Y-78768502D01*
X156871209Y-78787264D01*
X156863711Y-78796667D01*
X156861035Y-78808389D01*
X156853717Y-78829303D01*
X156848501Y-78840136D01*
X156848501Y-82995662D01*
X156853716Y-83006492D01*
X156861036Y-83027413D01*
X156863710Y-83039128D01*
X156863711Y-83039130D01*
X156871206Y-83048528D01*
X156882998Y-83067295D01*
X156888212Y-83078123D01*
X156897605Y-83085613D01*
X156913282Y-83101289D01*
X156920777Y-83110687D01*
X156931602Y-83115900D01*
X156950373Y-83127695D01*
X156959770Y-83135189D01*
X156971482Y-83137862D01*
X156992406Y-83145182D01*
X157003238Y-83150399D01*
X157026411Y-83150399D01*
X157094764Y-83150399D01*
X157116001Y-83150399D01*
X157165501Y-83163662D01*
X157201738Y-83199899D01*
X157215001Y-83249399D01*
X157215001Y-84289344D01*
X157994996Y-83509349D01*
X158039377Y-83483726D01*
X158090623Y-83483726D01*
X158135004Y-83509349D01*
X158915000Y-84289344D01*
X158915000Y-83249399D01*
X158928263Y-83199899D01*
X158964500Y-83163662D01*
X159014000Y-83150399D01*
X159184400Y-83150399D01*
X159233900Y-83163662D01*
X159270137Y-83199899D01*
X159283400Y-83249399D01*
X159283400Y-85372000D01*
X159270137Y-85421500D01*
X159233900Y-85457737D01*
X159184400Y-85471000D01*
X156659607Y-85471000D01*
X156603217Y-85453371D01*
X156566910Y-85406761D01*
X156383586Y-84917898D01*
X156359873Y-84854663D01*
X157356791Y-84854663D01*
X157358813Y-84856685D01*
X157463751Y-84907986D01*
X157531785Y-84917898D01*
X158598218Y-84917898D01*
X158666249Y-84907987D01*
X158771190Y-84856685D01*
X158773210Y-84854663D01*
X158065000Y-84146453D01*
X157356791Y-84854663D01*
X156359873Y-84854663D01*
X155835302Y-83455807D01*
X155829000Y-83421047D01*
X155829000Y-82173880D01*
X155845684Y-82118879D01*
X155880750Y-82090100D01*
X155880660Y-82089983D01*
X155884253Y-82087225D01*
X155890114Y-82082416D01*
X155891000Y-82082049D01*
X155933560Y-82049391D01*
X155963391Y-82019560D01*
X155996049Y-81977000D01*
X156016579Y-81927438D01*
X156027498Y-81886688D01*
X156034500Y-81833500D01*
X156034500Y-77579367D01*
X156025111Y-77517961D01*
X156010557Y-77471480D01*
X155983248Y-77415685D01*
X155940515Y-77370600D01*
X155940514Y-77370599D01*
X155909719Y-77346676D01*
X155881925Y-77312808D01*
X155871470Y-77270261D01*
X155880401Y-77227369D01*
X155940302Y-77096205D01*
X155940302Y-77096203D01*
X155940304Y-77096200D01*
X155999565Y-76894376D01*
X155999566Y-76894371D01*
X156029500Y-76686175D01*
X156029500Y-74294999D01*
X156802655Y-74294999D01*
X156822016Y-74602742D01*
X156879792Y-74905612D01*
X156879793Y-74905616D01*
X156879794Y-74905619D01*
X156975078Y-75198873D01*
X157106365Y-75477871D01*
X157271584Y-75738216D01*
X157271586Y-75738218D01*
X157468131Y-75975799D01*
X157692901Y-76186874D01*
X157942363Y-76368118D01*
X158212563Y-76516662D01*
X158212565Y-76516663D01*
X158499257Y-76630172D01*
X158717363Y-76686172D01*
X158797918Y-76706855D01*
X159103825Y-76745500D01*
X159103828Y-76745500D01*
X159412172Y-76745500D01*
X159412175Y-76745500D01*
X159718081Y-76706855D01*
X159718083Y-76706854D01*
X159718086Y-76706854D01*
X160016743Y-76630172D01*
X160303435Y-76516663D01*
X160573640Y-76368116D01*
X160823096Y-76186876D01*
X161047869Y-75975799D01*
X161244416Y-75738216D01*
X161409635Y-75477871D01*
X161540922Y-75198873D01*
X161636206Y-74905619D01*
X161693984Y-74602736D01*
X161713345Y-74295000D01*
X161693984Y-73987264D01*
X161636206Y-73684381D01*
X161540922Y-73391127D01*
X161409635Y-73112129D01*
X161244416Y-72851784D01*
X161047869Y-72614201D01*
X161047868Y-72614200D01*
X160823098Y-72403125D01*
X160573636Y-72221881D01*
X160303436Y-72073337D01*
X160016744Y-71959828D01*
X159718081Y-71883144D01*
X159412175Y-71844500D01*
X159412172Y-71844500D01*
X159103828Y-71844500D01*
X159103825Y-71844500D01*
X158797918Y-71883144D01*
X158499255Y-71959828D01*
X158212563Y-72073337D01*
X157942363Y-72221881D01*
X157692901Y-72403125D01*
X157468131Y-72614200D01*
X157271586Y-72851781D01*
X157106363Y-73112132D01*
X156975079Y-73391124D01*
X156879792Y-73684387D01*
X156822016Y-73987257D01*
X156802655Y-74294999D01*
X156029500Y-74294999D01*
X156029500Y-72521319D01*
X156029877Y-72512691D01*
X156038701Y-72411828D01*
X156044993Y-72339905D01*
X156047986Y-72322929D01*
X156091760Y-72159563D01*
X156097657Y-72143362D01*
X156169126Y-71990097D01*
X156177749Y-71975161D01*
X156274749Y-71836630D01*
X156285830Y-71823423D01*
X156405423Y-71703830D01*
X156418630Y-71692749D01*
X156557161Y-71595749D01*
X156572097Y-71587126D01*
X156725362Y-71515657D01*
X156741563Y-71509760D01*
X156904929Y-71465986D01*
X156921905Y-71462993D01*
X157094690Y-71447877D01*
X157103319Y-71447500D01*
X157138882Y-71447500D01*
X161377118Y-71447500D01*
X161412681Y-71447500D01*
X161421309Y-71447877D01*
G37*
%TD.AperFunction*%
%TD*%
%TA.AperFunction,Conductor*%
%TO.N,/sw_out*%
G36*
X142493000Y-78064763D02*
G01*
X142529237Y-78101000D01*
X142542500Y-78150500D01*
X142542500Y-79637544D01*
X142542500Y-80534518D01*
X142551349Y-80594174D01*
X142568034Y-80649175D01*
X142593818Y-80703688D01*
X142634315Y-80748371D01*
X142678744Y-80784834D01*
X142699896Y-80797512D01*
X142735139Y-80833630D01*
X142748000Y-80882427D01*
X142748000Y-81534000D01*
X142748000Y-82231001D01*
X142748000Y-82324000D01*
X142734737Y-82373500D01*
X142698500Y-82409737D01*
X142649000Y-82423000D01*
X142180552Y-82423000D01*
X142171310Y-82422568D01*
X142166553Y-82422122D01*
X142149256Y-82420500D01*
X141568744Y-82420500D01*
X141551446Y-82422122D01*
X141546690Y-82422568D01*
X141537448Y-82423000D01*
X141097000Y-82423000D01*
X141097000Y-82423001D01*
X141097000Y-83897197D01*
X141083739Y-83946692D01*
X141047509Y-83982928D01*
X140998016Y-83996196D01*
X137337515Y-83996789D01*
X137288009Y-83983532D01*
X137251766Y-83947295D01*
X137238500Y-83897790D01*
X137238500Y-83145697D01*
X138046000Y-83145697D01*
X138057604Y-83204036D01*
X138101807Y-83270192D01*
X138167963Y-83314395D01*
X138226303Y-83326000D01*
X139195999Y-83326000D01*
X139196000Y-83325999D01*
X139696000Y-83325999D01*
X139696001Y-83326000D01*
X140665697Y-83326000D01*
X140724036Y-83314395D01*
X140790192Y-83270192D01*
X140834395Y-83204036D01*
X140846000Y-83145697D01*
X140846000Y-81786201D01*
X141184000Y-81786201D01*
X141186771Y-81815757D01*
X141230329Y-81940238D01*
X141308646Y-82046353D01*
X141414761Y-82124670D01*
X141539242Y-82168228D01*
X141568799Y-82171000D01*
X141608999Y-82171000D01*
X141609000Y-82170999D01*
X142109000Y-82170999D01*
X142109001Y-82171000D01*
X142149201Y-82171000D01*
X142178757Y-82168228D01*
X142303238Y-82124670D01*
X142409353Y-82046353D01*
X142487670Y-81940238D01*
X142531228Y-81815757D01*
X142534000Y-81786201D01*
X142534000Y-81683501D01*
X142533999Y-81683500D01*
X142109001Y-81683500D01*
X142109000Y-81683501D01*
X142109000Y-82170999D01*
X141609000Y-82170999D01*
X141609000Y-81683501D01*
X141608999Y-81683500D01*
X141184001Y-81683500D01*
X141184000Y-81683501D01*
X141184000Y-81786201D01*
X140846000Y-81786201D01*
X140846000Y-81276001D01*
X140845999Y-81276000D01*
X139696001Y-81276000D01*
X139696000Y-81276001D01*
X139696000Y-83325999D01*
X139196000Y-83325999D01*
X139196000Y-81276001D01*
X139195999Y-81276000D01*
X138046001Y-81276000D01*
X138046000Y-81276001D01*
X138046000Y-83145697D01*
X137238500Y-83145697D01*
X137238500Y-81183499D01*
X141184000Y-81183499D01*
X141184001Y-81183500D01*
X141608999Y-81183500D01*
X141609000Y-81183499D01*
X142109000Y-81183499D01*
X142109001Y-81183500D01*
X142533999Y-81183500D01*
X142534000Y-81183499D01*
X142534000Y-81080799D01*
X142531228Y-81051242D01*
X142487670Y-80926761D01*
X142409353Y-80820646D01*
X142303238Y-80742329D01*
X142178757Y-80698771D01*
X142149201Y-80696000D01*
X142109001Y-80696000D01*
X142109000Y-80696001D01*
X142109000Y-81183499D01*
X141609000Y-81183499D01*
X141609000Y-80696001D01*
X141608999Y-80696000D01*
X141568799Y-80696000D01*
X141539242Y-80698771D01*
X141414761Y-80742329D01*
X141308646Y-80820646D01*
X141230329Y-80926761D01*
X141186771Y-81051242D01*
X141184000Y-81080799D01*
X141184000Y-81183499D01*
X137238500Y-81183499D01*
X137238500Y-80775999D01*
X138046000Y-80775999D01*
X138046001Y-80776000D01*
X139195999Y-80776000D01*
X139196000Y-80775999D01*
X139696000Y-80775999D01*
X139696001Y-80776000D01*
X140845999Y-80776000D01*
X140846000Y-80775999D01*
X140846000Y-78906303D01*
X140834395Y-78847963D01*
X140790192Y-78781807D01*
X140724036Y-78737604D01*
X140665697Y-78726000D01*
X139696001Y-78726000D01*
X139696000Y-78726001D01*
X139696000Y-80775999D01*
X139196000Y-80775999D01*
X139196000Y-78726001D01*
X139195999Y-78726000D01*
X138226303Y-78726000D01*
X138167963Y-78737604D01*
X138101807Y-78781807D01*
X138057604Y-78847963D01*
X138046000Y-78906303D01*
X138046000Y-80775999D01*
X137238500Y-80775999D01*
X137238500Y-78150500D01*
X137251763Y-78101000D01*
X137288000Y-78064763D01*
X137337500Y-78051500D01*
X142443500Y-78051500D01*
X142493000Y-78064763D01*
G37*
%TD.AperFunction*%
%TD*%
%TA.AperFunction,Conductor*%
%TO.N,+5V*%
G36*
X150678282Y-81584869D02*
G01*
X150682769Y-81587867D01*
X150741252Y-81599500D01*
X152280747Y-81599500D01*
X152280748Y-81599500D01*
X152339231Y-81587867D01*
X152340394Y-81587089D01*
X152382471Y-81571251D01*
X152427217Y-81575657D01*
X152465400Y-81599400D01*
X152752004Y-81886004D01*
X152773464Y-81918122D01*
X152781000Y-81956008D01*
X152781000Y-83895305D01*
X152767739Y-83944800D01*
X152731509Y-83981036D01*
X152682016Y-83994304D01*
X152602910Y-83994317D01*
X145786087Y-83995420D01*
X145735194Y-83981346D01*
X145698774Y-83943113D01*
X145687190Y-83891603D01*
X145689826Y-83837569D01*
X145698192Y-83802299D01*
X145718698Y-83772404D01*
X146030606Y-83460496D01*
X146062724Y-83439036D01*
X146100610Y-83431500D01*
X146468757Y-83431500D01*
X146468760Y-83431500D01*
X146536893Y-83421573D01*
X146641983Y-83370198D01*
X146724698Y-83287483D01*
X146739502Y-83257201D01*
X147026000Y-83257201D01*
X147028771Y-83286757D01*
X147072329Y-83411238D01*
X147150646Y-83517353D01*
X147256761Y-83595670D01*
X147381242Y-83639228D01*
X147410799Y-83642000D01*
X147450999Y-83642000D01*
X147451000Y-83641999D01*
X147951000Y-83641999D01*
X147951001Y-83642000D01*
X147991201Y-83642000D01*
X148020757Y-83639228D01*
X148145238Y-83595670D01*
X148251353Y-83517353D01*
X148329670Y-83411238D01*
X148373228Y-83286757D01*
X148375995Y-83257253D01*
X148676500Y-83257253D01*
X148679275Y-83286851D01*
X148722883Y-83411474D01*
X148737663Y-83431500D01*
X148801289Y-83517711D01*
X148907525Y-83596116D01*
X149032151Y-83639725D01*
X149061744Y-83642500D01*
X149642253Y-83642500D01*
X149642256Y-83642500D01*
X149671849Y-83639725D01*
X149796475Y-83596116D01*
X149902711Y-83517711D01*
X149981116Y-83411475D01*
X150024725Y-83286849D01*
X150027500Y-83257256D01*
X150027500Y-82651744D01*
X150024725Y-82622151D01*
X149981116Y-82497525D01*
X149902711Y-82391289D01*
X149796475Y-82312884D01*
X149796474Y-82312883D01*
X149671851Y-82269275D01*
X149660011Y-82268165D01*
X149642256Y-82266500D01*
X149061744Y-82266500D01*
X149046947Y-82267887D01*
X149032148Y-82269275D01*
X148907525Y-82312883D01*
X148801289Y-82391289D01*
X148722883Y-82497525D01*
X148679275Y-82622148D01*
X148676500Y-82651747D01*
X148676500Y-83257253D01*
X148375995Y-83257253D01*
X148376000Y-83257201D01*
X148376000Y-83204501D01*
X148375999Y-83204500D01*
X147951001Y-83204500D01*
X147951000Y-83204501D01*
X147951000Y-83641999D01*
X147451000Y-83641999D01*
X147451000Y-83204501D01*
X147450999Y-83204500D01*
X147026001Y-83204500D01*
X147026000Y-83204501D01*
X147026000Y-83257201D01*
X146739502Y-83257201D01*
X146776073Y-83182393D01*
X146786000Y-83114260D01*
X146786000Y-82747740D01*
X146779700Y-82704499D01*
X147026000Y-82704499D01*
X147026001Y-82704500D01*
X147450999Y-82704500D01*
X147451000Y-82704499D01*
X147951000Y-82704499D01*
X147951001Y-82704500D01*
X148375999Y-82704500D01*
X148376000Y-82704499D01*
X148376000Y-82651799D01*
X148373228Y-82622242D01*
X148329670Y-82497761D01*
X148251353Y-82391646D01*
X148145238Y-82313329D01*
X148020757Y-82269771D01*
X147991201Y-82267000D01*
X147951001Y-82267000D01*
X147951000Y-82267001D01*
X147951000Y-82704499D01*
X147451000Y-82704499D01*
X147451000Y-82267001D01*
X147450999Y-82267000D01*
X147410799Y-82267000D01*
X147381242Y-82269771D01*
X147256761Y-82313329D01*
X147150646Y-82391646D01*
X147072329Y-82497761D01*
X147028771Y-82622242D01*
X147026000Y-82651799D01*
X147026000Y-82704499D01*
X146779700Y-82704499D01*
X146776073Y-82679607D01*
X146724698Y-82574517D01*
X146676182Y-82526001D01*
X146650561Y-82481623D01*
X146650561Y-82430377D01*
X146676182Y-82385998D01*
X146724698Y-82337483D01*
X146776073Y-82232393D01*
X146786000Y-82164260D01*
X146786000Y-81797740D01*
X146779553Y-81753492D01*
X146787151Y-81698785D01*
X146822879Y-81656662D01*
X146875609Y-81640238D01*
X147057096Y-81636748D01*
X147102758Y-81646927D01*
X147138649Y-81676939D01*
X147150289Y-81692711D01*
X147256525Y-81771116D01*
X147256526Y-81771116D01*
X147256527Y-81771117D01*
X147332605Y-81797738D01*
X147381151Y-81814725D01*
X147410744Y-81817500D01*
X147991253Y-81817500D01*
X147991256Y-81817500D01*
X148020849Y-81814725D01*
X148145475Y-81771116D01*
X148251711Y-81692711D01*
X148281836Y-81651892D01*
X148316025Y-81622738D01*
X148359580Y-81611700D01*
X148684990Y-81605442D01*
X148730654Y-81615622D01*
X148766546Y-81645636D01*
X148801288Y-81692710D01*
X148801289Y-81692711D01*
X148907525Y-81771116D01*
X149032151Y-81814725D01*
X149061744Y-81817500D01*
X149642253Y-81817500D01*
X149642256Y-81817500D01*
X149671849Y-81814725D01*
X149796475Y-81771116D01*
X149902711Y-81692711D01*
X149956607Y-81619682D01*
X149990797Y-81590530D01*
X150034351Y-81579493D01*
X150621382Y-81568204D01*
X150678282Y-81584869D01*
G37*
%TD.AperFunction*%
%TD*%
%TA.AperFunction,Conductor*%
%TO.N,VCC*%
G36*
X155468293Y-82120500D02*
G01*
X155468296Y-82120500D01*
X155524500Y-82120500D01*
X155574000Y-82133763D01*
X155610237Y-82170000D01*
X155623500Y-82219500D01*
X155623500Y-83421048D01*
X155626795Y-83457704D01*
X155633099Y-83492471D01*
X155637873Y-83509786D01*
X155642886Y-83527963D01*
X155933531Y-84303017D01*
X156087049Y-84712398D01*
X156167457Y-84926819D01*
X156374494Y-85478917D01*
X156404790Y-85533045D01*
X156425944Y-85560201D01*
X156441097Y-85579654D01*
X156486166Y-85622277D01*
X156541899Y-85649510D01*
X156598289Y-85667139D01*
X156659607Y-85676500D01*
X159184400Y-85676500D01*
X159237585Y-85669498D01*
X159287085Y-85656235D01*
X159336649Y-85635706D01*
X159379210Y-85603047D01*
X159415447Y-85566810D01*
X159448106Y-85524249D01*
X159468635Y-85474685D01*
X159481898Y-85425185D01*
X159488900Y-85372000D01*
X159488900Y-84854663D01*
X159896791Y-84854663D01*
X159898813Y-84856685D01*
X160003751Y-84907986D01*
X160071785Y-84917898D01*
X161138218Y-84917898D01*
X161206249Y-84907987D01*
X161311190Y-84856685D01*
X161313210Y-84854663D01*
X160605000Y-84146453D01*
X159896791Y-84854663D01*
X159488900Y-84854663D01*
X159488900Y-83249399D01*
X159502163Y-83199899D01*
X159538400Y-83163662D01*
X159587900Y-83150399D01*
X159656001Y-83150399D01*
X159705501Y-83163662D01*
X159741738Y-83199899D01*
X159755001Y-83249399D01*
X159755001Y-84289344D01*
X160534996Y-83509349D01*
X160579377Y-83483726D01*
X160630623Y-83483726D01*
X160675004Y-83509349D01*
X161455000Y-84289344D01*
X161455000Y-83249399D01*
X161468263Y-83199899D01*
X161504500Y-83163662D01*
X161554000Y-83150399D01*
X161666763Y-83150399D01*
X161666764Y-83150399D01*
X161677593Y-83145183D01*
X161698512Y-83137863D01*
X161710232Y-83135189D01*
X161719629Y-83127694D01*
X161738402Y-83115899D01*
X161749223Y-83110688D01*
X161749223Y-83110687D01*
X161749225Y-83110687D01*
X161756720Y-83101287D01*
X161772389Y-83085618D01*
X161781789Y-83078123D01*
X161787000Y-83067300D01*
X161798796Y-83048527D01*
X161806291Y-83039130D01*
X161808965Y-83027410D01*
X161816285Y-83006491D01*
X161821501Y-82995662D01*
X161821501Y-82981500D01*
X161834764Y-82932000D01*
X161871001Y-82895763D01*
X161920501Y-82882500D01*
X162387500Y-82882500D01*
X162437000Y-82895763D01*
X162473237Y-82932000D01*
X162486500Y-82981500D01*
X162486500Y-85212681D01*
X162486123Y-85221310D01*
X162471007Y-85394085D01*
X162468011Y-85411079D01*
X162424241Y-85574429D01*
X162418338Y-85590645D01*
X162346875Y-85743897D01*
X162338247Y-85758842D01*
X162241255Y-85897362D01*
X162230163Y-85910582D01*
X162110582Y-86030163D01*
X162097362Y-86041255D01*
X161958842Y-86138247D01*
X161943897Y-86146875D01*
X161790645Y-86218338D01*
X161774429Y-86224241D01*
X161611079Y-86268011D01*
X161594084Y-86271007D01*
X161421303Y-86286123D01*
X161412675Y-86286500D01*
X161357813Y-86286500D01*
X161357458Y-86286570D01*
X156087108Y-86292828D01*
X156078908Y-86292498D01*
X155916008Y-86279155D01*
X155900059Y-86276524D01*
X155745386Y-86237821D01*
X155730078Y-86232630D01*
X155583774Y-86169277D01*
X155569514Y-86161665D01*
X155502484Y-86118502D01*
X155435453Y-86075337D01*
X155422625Y-86065507D01*
X155383570Y-86030163D01*
X155304408Y-85958522D01*
X155293350Y-85946735D01*
X155194115Y-85821935D01*
X155185129Y-85808515D01*
X155107519Y-85669217D01*
X155100838Y-85654517D01*
X155046935Y-85504454D01*
X155042733Y-85488860D01*
X155013231Y-85328009D01*
X155012103Y-85320038D01*
X155008537Y-85284366D01*
X155008535Y-85284363D01*
X155006607Y-85265077D01*
X155006563Y-85264931D01*
X155002179Y-85221310D01*
X155001623Y-85215772D01*
X154948455Y-85004720D01*
X154864925Y-84803741D01*
X154752838Y-84617177D01*
X154752837Y-84617175D01*
X154614614Y-84449058D01*
X154453238Y-84303015D01*
X154272205Y-84182209D01*
X154075412Y-84089240D01*
X153867118Y-84026123D01*
X153867117Y-84026122D01*
X153651823Y-83994220D01*
X153651607Y-83994219D01*
X153576707Y-83994182D01*
X153576507Y-83994160D01*
X153540884Y-83994165D01*
X153540858Y-83994166D01*
X153484093Y-83994166D01*
X153484045Y-83994175D01*
X153085516Y-83994239D01*
X153036009Y-83980981D01*
X152999766Y-83944744D01*
X152986500Y-83895239D01*
X152986500Y-83254217D01*
X153280001Y-83254217D01*
X153289911Y-83322247D01*
X153341214Y-83427188D01*
X153423812Y-83509786D01*
X153528750Y-83561087D01*
X153596784Y-83571000D01*
X154054999Y-83571000D01*
X154055000Y-83570999D01*
X154055000Y-83570998D01*
X154555000Y-83570998D01*
X154555001Y-83570999D01*
X155013217Y-83570999D01*
X155081247Y-83561088D01*
X155186188Y-83509785D01*
X155268786Y-83427187D01*
X155320087Y-83322249D01*
X155330000Y-83254216D01*
X155330000Y-82991001D01*
X155329999Y-82991000D01*
X154555001Y-82991000D01*
X154555000Y-82991001D01*
X154555000Y-83570998D01*
X154055000Y-83570998D01*
X154055000Y-82991001D01*
X154054999Y-82991000D01*
X153280002Y-82991000D01*
X153280001Y-82991001D01*
X153280001Y-83254217D01*
X152986500Y-83254217D01*
X152986500Y-82219500D01*
X152999763Y-82170000D01*
X153036000Y-82133763D01*
X153085500Y-82120500D01*
X153141706Y-82120500D01*
X153168498Y-82116861D01*
X153227695Y-82127229D01*
X153269987Y-82169927D01*
X153278366Y-82220607D01*
X153280000Y-82220607D01*
X153280000Y-82490999D01*
X153280001Y-82491000D01*
X155329998Y-82491000D01*
X155329999Y-82490999D01*
X155329999Y-82220609D01*
X155331635Y-82220609D01*
X155340007Y-82169935D01*
X155382299Y-82127231D01*
X155441499Y-82116861D01*
X155468293Y-82120500D01*
G37*
%TD.AperFunction*%
%TD*%
%TA.AperFunction,Conductor*%
%TO.N,/vsplit*%
G36*
X155775982Y-77503006D02*
G01*
X155814446Y-77532886D01*
X155829000Y-77579367D01*
X155829000Y-81833500D01*
X155818081Y-81874250D01*
X155788250Y-81904081D01*
X155747500Y-81915000D01*
X155468296Y-81915000D01*
X155426397Y-81903405D01*
X155396419Y-81871919D01*
X155386894Y-81829501D01*
X155400531Y-81788221D01*
X155433395Y-81739035D01*
X155445000Y-81680698D01*
X155445000Y-80891000D01*
X153165000Y-80891000D01*
X153165000Y-81680698D01*
X153176604Y-81739035D01*
X153209469Y-81788221D01*
X153223106Y-81829501D01*
X153213581Y-81871919D01*
X153183603Y-81903405D01*
X153141704Y-81915000D01*
X153044785Y-81915000D01*
X152999506Y-81901265D01*
X152969489Y-81864688D01*
X152944334Y-81803957D01*
X152944332Y-81803954D01*
X152922872Y-81771836D01*
X152897314Y-81740694D01*
X152768620Y-81612000D01*
X152610710Y-81454089D01*
X152573922Y-81424892D01*
X152573923Y-81424892D01*
X152573916Y-81424887D01*
X152535733Y-81401144D01*
X152493269Y-81381062D01*
X152447359Y-81371146D01*
X152402606Y-81366739D01*
X152400000Y-81366782D01*
X152400000Y-80399000D01*
X152461000Y-80399000D01*
X152461000Y-80397228D01*
X152468825Y-80362382D01*
X152490797Y-80334228D01*
X152513678Y-80315449D01*
X152513682Y-80315446D01*
X152554181Y-80270762D01*
X152579966Y-80216246D01*
X152596651Y-80161244D01*
X152605500Y-80101589D01*
X152605500Y-79891000D01*
X153165000Y-79891000D01*
X153805000Y-79891000D01*
X153805000Y-78921000D01*
X154805000Y-78921000D01*
X154805000Y-79891000D01*
X155445000Y-79891000D01*
X155445000Y-79101302D01*
X155433395Y-79042964D01*
X155389191Y-78976808D01*
X155323035Y-78932604D01*
X155264698Y-78921000D01*
X154805000Y-78921000D01*
X153805000Y-78921000D01*
X153345302Y-78921000D01*
X153286964Y-78932604D01*
X153220808Y-78976808D01*
X153176604Y-79042964D01*
X153165000Y-79101302D01*
X153165000Y-79891000D01*
X152605500Y-79891000D01*
X152605500Y-78150500D01*
X152604596Y-78143640D01*
X152611534Y-78098558D01*
X152641608Y-78064264D01*
X152685399Y-78051500D01*
X154664175Y-78051500D01*
X154872371Y-78021566D01*
X154872372Y-78021565D01*
X154872376Y-78021565D01*
X155074200Y-77962304D01*
X155217715Y-77896763D01*
X155265537Y-77874924D01*
X155442486Y-77761205D01*
X155442486Y-77761204D01*
X155442489Y-77761203D01*
X155601456Y-77623456D01*
X155685907Y-77525994D01*
X155727345Y-77500398D01*
X155775982Y-77503006D01*
G37*
%TD.AperFunction*%
%TD*%
%TA.AperFunction,Conductor*%
%TO.N,/+12v*%
G36*
X143211498Y-78066674D02*
G01*
X143248023Y-78107546D01*
X143257204Y-78161585D01*
X143236228Y-78212226D01*
X143202827Y-78235924D01*
X143083208Y-78324208D01*
X143002654Y-78433354D01*
X142957850Y-78561398D01*
X142955000Y-78591792D01*
X142955000Y-78870999D01*
X142955001Y-78871000D01*
X144529998Y-78871000D01*
X144529999Y-78870999D01*
X144529999Y-78591800D01*
X144527148Y-78561395D01*
X144482345Y-78433354D01*
X144401791Y-78324208D01*
X144282172Y-78235924D01*
X144248772Y-78212226D01*
X144227796Y-78161585D01*
X144236977Y-78107546D01*
X144273502Y-78066674D01*
X144326173Y-78051500D01*
X145232313Y-78051500D01*
X145284984Y-78066674D01*
X145321509Y-78107545D01*
X145330691Y-78161584D01*
X145309715Y-78212225D01*
X145278922Y-78234073D01*
X145279124Y-78234346D01*
X145267117Y-78243207D01*
X145267118Y-78243207D01*
X145157850Y-78323850D01*
X145077207Y-78433118D01*
X145032354Y-78561301D01*
X145032353Y-78561304D01*
X145029500Y-78591730D01*
X145029500Y-79650270D01*
X145032353Y-79680695D01*
X145032353Y-79680697D01*
X145032354Y-79680699D01*
X145077207Y-79808882D01*
X145157850Y-79918150D01*
X145267118Y-79998793D01*
X145395301Y-80043646D01*
X145408343Y-80044869D01*
X145425730Y-80046500D01*
X145425734Y-80046500D01*
X146209266Y-80046500D01*
X146209270Y-80046500D01*
X146224482Y-80045073D01*
X146239699Y-80043646D01*
X146367882Y-79998793D01*
X146477150Y-79918150D01*
X146557793Y-79808882D01*
X146602646Y-79680699D01*
X146605500Y-79650266D01*
X146605500Y-78591734D01*
X146602646Y-78561301D01*
X146557793Y-78433118D01*
X146477150Y-78323850D01*
X146367882Y-78243207D01*
X146355876Y-78234346D01*
X146356077Y-78234073D01*
X146325285Y-78212225D01*
X146304309Y-78161584D01*
X146313491Y-78107545D01*
X146350016Y-78066674D01*
X146402687Y-78051500D01*
X152301000Y-78051500D01*
X152350500Y-78064763D01*
X152386737Y-78101000D01*
X152400000Y-78150500D01*
X152400000Y-80101589D01*
X152383315Y-80156591D01*
X152338884Y-80193054D01*
X152290499Y-80197818D01*
X152290499Y-80198500D01*
X152283573Y-80198500D01*
X152281684Y-80198686D01*
X152280749Y-80198500D01*
X152280748Y-80198500D01*
X150741252Y-80198500D01*
X150712010Y-80204316D01*
X150682768Y-80210133D01*
X150627122Y-80247315D01*
X150572120Y-80264000D01*
X146939000Y-80264000D01*
X146839363Y-80463274D01*
X146802862Y-80503214D01*
X146750815Y-80518000D01*
X144780000Y-80518000D01*
X144780000Y-80518001D01*
X144780000Y-81435000D01*
X144766737Y-81484500D01*
X144730500Y-81520737D01*
X144681000Y-81534000D01*
X144536110Y-81534000D01*
X144488094Y-81521576D01*
X144452129Y-81487423D01*
X144437242Y-81440113D01*
X144447169Y-81391520D01*
X144500588Y-81282247D01*
X144500770Y-81281000D01*
X143497000Y-81281000D01*
X143447500Y-81267737D01*
X143411263Y-81231500D01*
X143398000Y-81182000D01*
X143398000Y-80780999D01*
X143898000Y-80780999D01*
X143898001Y-80781000D01*
X144500770Y-80781000D01*
X144500770Y-80780999D01*
X144500589Y-80779753D01*
X144449285Y-80674811D01*
X144366687Y-80592213D01*
X144261749Y-80540912D01*
X144193716Y-80531000D01*
X143898001Y-80531000D01*
X143898000Y-80531001D01*
X143898000Y-80780999D01*
X143398000Y-80780999D01*
X143398000Y-80531002D01*
X143397999Y-80531001D01*
X143102283Y-80531001D01*
X143034252Y-80540911D01*
X142929311Y-80592214D01*
X142917004Y-80604522D01*
X142866314Y-80631616D01*
X142809114Y-80625982D01*
X142764685Y-80589519D01*
X142748000Y-80534518D01*
X142748000Y-79650200D01*
X142955001Y-79650200D01*
X142957851Y-79680604D01*
X143002654Y-79808645D01*
X143083208Y-79917791D01*
X143192354Y-79998345D01*
X143320398Y-80043149D01*
X143350792Y-80046000D01*
X143492499Y-80046000D01*
X143492500Y-80045999D01*
X143492500Y-80045998D01*
X143992500Y-80045998D01*
X143992501Y-80045999D01*
X144134200Y-80045999D01*
X144164604Y-80043148D01*
X144292645Y-79998345D01*
X144401791Y-79917791D01*
X144482345Y-79808645D01*
X144527149Y-79680601D01*
X144530000Y-79650208D01*
X144530000Y-79371001D01*
X144529999Y-79371000D01*
X143992501Y-79371000D01*
X143992500Y-79371001D01*
X143992500Y-80045998D01*
X143492500Y-80045998D01*
X143492500Y-79371001D01*
X143492499Y-79371000D01*
X142955002Y-79371000D01*
X142955001Y-79371001D01*
X142955001Y-79650200D01*
X142748000Y-79650200D01*
X142748000Y-78150500D01*
X142761263Y-78101000D01*
X142797500Y-78064763D01*
X142847000Y-78051500D01*
X143158827Y-78051500D01*
X143211498Y-78066674D01*
G37*
%TD.AperFunction*%
%TD*%
M02*
