%TF.GenerationSoftware,KiCad,Pcbnew,7.0.1*%
%TF.CreationDate,2023-04-12T12:59:01-04:00*%
%TF.ProjectId,BuckarooHAT,4275636b-6172-46f6-9f48-41542e6b6963,rev?*%
%TF.SameCoordinates,Original*%
%TF.FileFunction,Legend,Top*%
%TF.FilePolarity,Positive*%
%FSLAX46Y46*%
G04 Gerber Fmt 4.6, Leading zero omitted, Abs format (unit mm)*
G04 Created by KiCad (PCBNEW 7.0.1) date 2023-04-12 12:59:01*
%MOMM*%
%LPD*%
G01*
G04 APERTURE LIST*
%ADD10C,0.152400*%
%ADD11C,0.100000*%
%ADD12C,0.150000*%
%ADD13C,0.125000*%
%ADD14C,0.120000*%
G04 APERTURE END LIST*
D10*
X113494457Y-80534304D02*
X113223523Y-80534304D01*
X113223523Y-80960056D02*
X113223523Y-80147256D01*
X113223523Y-80147256D02*
X113610571Y-80147256D01*
X114384666Y-80960056D02*
X114113733Y-80573009D01*
X113920209Y-80960056D02*
X113920209Y-80147256D01*
X113920209Y-80147256D02*
X114229847Y-80147256D01*
X114229847Y-80147256D02*
X114307257Y-80185961D01*
X114307257Y-80185961D02*
X114345962Y-80224666D01*
X114345962Y-80224666D02*
X114384666Y-80302075D01*
X114384666Y-80302075D02*
X114384666Y-80418190D01*
X114384666Y-80418190D02*
X114345962Y-80495599D01*
X114345962Y-80495599D02*
X114307257Y-80534304D01*
X114307257Y-80534304D02*
X114229847Y-80573009D01*
X114229847Y-80573009D02*
X113920209Y-80573009D01*
X115197466Y-80882647D02*
X115158762Y-80921352D01*
X115158762Y-80921352D02*
X115042647Y-80960056D01*
X115042647Y-80960056D02*
X114965238Y-80960056D01*
X114965238Y-80960056D02*
X114849124Y-80921352D01*
X114849124Y-80921352D02*
X114771714Y-80843942D01*
X114771714Y-80843942D02*
X114733009Y-80766532D01*
X114733009Y-80766532D02*
X114694305Y-80611713D01*
X114694305Y-80611713D02*
X114694305Y-80495599D01*
X114694305Y-80495599D02*
X114733009Y-80340780D01*
X114733009Y-80340780D02*
X114771714Y-80263371D01*
X114771714Y-80263371D02*
X114849124Y-80185961D01*
X114849124Y-80185961D02*
X114965238Y-80147256D01*
X114965238Y-80147256D02*
X115042647Y-80147256D01*
X115042647Y-80147256D02*
X115158762Y-80185961D01*
X115158762Y-80185961D02*
X115197466Y-80224666D01*
X116552133Y-80147256D02*
X116165085Y-80147256D01*
X116165085Y-80147256D02*
X116126381Y-80534304D01*
X116126381Y-80534304D02*
X116165085Y-80495599D01*
X116165085Y-80495599D02*
X116242495Y-80456894D01*
X116242495Y-80456894D02*
X116436019Y-80456894D01*
X116436019Y-80456894D02*
X116513428Y-80495599D01*
X116513428Y-80495599D02*
X116552133Y-80534304D01*
X116552133Y-80534304D02*
X116590838Y-80611713D01*
X116590838Y-80611713D02*
X116590838Y-80805237D01*
X116590838Y-80805237D02*
X116552133Y-80882647D01*
X116552133Y-80882647D02*
X116513428Y-80921352D01*
X116513428Y-80921352D02*
X116436019Y-80960056D01*
X116436019Y-80960056D02*
X116242495Y-80960056D01*
X116242495Y-80960056D02*
X116165085Y-80921352D01*
X116165085Y-80921352D02*
X116126381Y-80882647D01*
X117055295Y-80495599D02*
X116977885Y-80456894D01*
X116977885Y-80456894D02*
X116939180Y-80418190D01*
X116939180Y-80418190D02*
X116900476Y-80340780D01*
X116900476Y-80340780D02*
X116900476Y-80302075D01*
X116900476Y-80302075D02*
X116939180Y-80224666D01*
X116939180Y-80224666D02*
X116977885Y-80185961D01*
X116977885Y-80185961D02*
X117055295Y-80147256D01*
X117055295Y-80147256D02*
X117210114Y-80147256D01*
X117210114Y-80147256D02*
X117287523Y-80185961D01*
X117287523Y-80185961D02*
X117326228Y-80224666D01*
X117326228Y-80224666D02*
X117364933Y-80302075D01*
X117364933Y-80302075D02*
X117364933Y-80340780D01*
X117364933Y-80340780D02*
X117326228Y-80418190D01*
X117326228Y-80418190D02*
X117287523Y-80456894D01*
X117287523Y-80456894D02*
X117210114Y-80495599D01*
X117210114Y-80495599D02*
X117055295Y-80495599D01*
X117055295Y-80495599D02*
X116977885Y-80534304D01*
X116977885Y-80534304D02*
X116939180Y-80573009D01*
X116939180Y-80573009D02*
X116900476Y-80650418D01*
X116900476Y-80650418D02*
X116900476Y-80805237D01*
X116900476Y-80805237D02*
X116939180Y-80882647D01*
X116939180Y-80882647D02*
X116977885Y-80921352D01*
X116977885Y-80921352D02*
X117055295Y-80960056D01*
X117055295Y-80960056D02*
X117210114Y-80960056D01*
X117210114Y-80960056D02*
X117287523Y-80921352D01*
X117287523Y-80921352D02*
X117326228Y-80882647D01*
X117326228Y-80882647D02*
X117364933Y-80805237D01*
X117364933Y-80805237D02*
X117364933Y-80650418D01*
X117364933Y-80650418D02*
X117326228Y-80573009D01*
X117326228Y-80573009D02*
X117287523Y-80534304D01*
X117287523Y-80534304D02*
X117210114Y-80495599D01*
X117829390Y-80495599D02*
X117751980Y-80456894D01*
X117751980Y-80456894D02*
X117713275Y-80418190D01*
X117713275Y-80418190D02*
X117674571Y-80340780D01*
X117674571Y-80340780D02*
X117674571Y-80302075D01*
X117674571Y-80302075D02*
X117713275Y-80224666D01*
X117713275Y-80224666D02*
X117751980Y-80185961D01*
X117751980Y-80185961D02*
X117829390Y-80147256D01*
X117829390Y-80147256D02*
X117984209Y-80147256D01*
X117984209Y-80147256D02*
X118061618Y-80185961D01*
X118061618Y-80185961D02*
X118100323Y-80224666D01*
X118100323Y-80224666D02*
X118139028Y-80302075D01*
X118139028Y-80302075D02*
X118139028Y-80340780D01*
X118139028Y-80340780D02*
X118100323Y-80418190D01*
X118100323Y-80418190D02*
X118061618Y-80456894D01*
X118061618Y-80456894D02*
X117984209Y-80495599D01*
X117984209Y-80495599D02*
X117829390Y-80495599D01*
X117829390Y-80495599D02*
X117751980Y-80534304D01*
X117751980Y-80534304D02*
X117713275Y-80573009D01*
X117713275Y-80573009D02*
X117674571Y-80650418D01*
X117674571Y-80650418D02*
X117674571Y-80805237D01*
X117674571Y-80805237D02*
X117713275Y-80882647D01*
X117713275Y-80882647D02*
X117751980Y-80921352D01*
X117751980Y-80921352D02*
X117829390Y-80960056D01*
X117829390Y-80960056D02*
X117984209Y-80960056D01*
X117984209Y-80960056D02*
X118061618Y-80921352D01*
X118061618Y-80921352D02*
X118100323Y-80882647D01*
X118100323Y-80882647D02*
X118139028Y-80805237D01*
X118139028Y-80805237D02*
X118139028Y-80650418D01*
X118139028Y-80650418D02*
X118100323Y-80573009D01*
X118100323Y-80573009D02*
X118061618Y-80534304D01*
X118061618Y-80534304D02*
X117984209Y-80495599D01*
X118874418Y-80147256D02*
X118487370Y-80147256D01*
X118487370Y-80147256D02*
X118448666Y-80534304D01*
X118448666Y-80534304D02*
X118487370Y-80495599D01*
X118487370Y-80495599D02*
X118564780Y-80456894D01*
X118564780Y-80456894D02*
X118758304Y-80456894D01*
X118758304Y-80456894D02*
X118835713Y-80495599D01*
X118835713Y-80495599D02*
X118874418Y-80534304D01*
X118874418Y-80534304D02*
X118913123Y-80611713D01*
X118913123Y-80611713D02*
X118913123Y-80805237D01*
X118913123Y-80805237D02*
X118874418Y-80882647D01*
X118874418Y-80882647D02*
X118835713Y-80921352D01*
X118835713Y-80921352D02*
X118758304Y-80960056D01*
X118758304Y-80960056D02*
X118564780Y-80960056D01*
X118564780Y-80960056D02*
X118487370Y-80921352D01*
X118487370Y-80921352D02*
X118448666Y-80882647D01*
X113765390Y-82354202D02*
X113687980Y-82315497D01*
X113687980Y-82315497D02*
X113610571Y-82238088D01*
X113610571Y-82238088D02*
X113494457Y-82121973D01*
X113494457Y-82121973D02*
X113417047Y-82083268D01*
X113417047Y-82083268D02*
X113339638Y-82083268D01*
X113378342Y-82276792D02*
X113300933Y-82238088D01*
X113300933Y-82238088D02*
X113223523Y-82160678D01*
X113223523Y-82160678D02*
X113184819Y-82005859D01*
X113184819Y-82005859D02*
X113184819Y-81734926D01*
X113184819Y-81734926D02*
X113223523Y-81580107D01*
X113223523Y-81580107D02*
X113300933Y-81502697D01*
X113300933Y-81502697D02*
X113378342Y-81463992D01*
X113378342Y-81463992D02*
X113533161Y-81463992D01*
X113533161Y-81463992D02*
X113610571Y-81502697D01*
X113610571Y-81502697D02*
X113687980Y-81580107D01*
X113687980Y-81580107D02*
X113726685Y-81734926D01*
X113726685Y-81734926D02*
X113726685Y-82005859D01*
X113726685Y-82005859D02*
X113687980Y-82160678D01*
X113687980Y-82160678D02*
X113610571Y-82238088D01*
X113610571Y-82238088D02*
X113533161Y-82276792D01*
X113533161Y-82276792D02*
X113378342Y-82276792D01*
X114075028Y-81463992D02*
X114075028Y-82121973D01*
X114075028Y-82121973D02*
X114113733Y-82199383D01*
X114113733Y-82199383D02*
X114152438Y-82238088D01*
X114152438Y-82238088D02*
X114229847Y-82276792D01*
X114229847Y-82276792D02*
X114384666Y-82276792D01*
X114384666Y-82276792D02*
X114462076Y-82238088D01*
X114462076Y-82238088D02*
X114500781Y-82199383D01*
X114500781Y-82199383D02*
X114539485Y-82121973D01*
X114539485Y-82121973D02*
X114539485Y-81463992D01*
X114926533Y-82276792D02*
X114926533Y-81463992D01*
X115236172Y-81463992D02*
X115778038Y-81463992D01*
X115778038Y-81463992D02*
X115236172Y-82276792D01*
X115236172Y-82276792D02*
X115778038Y-82276792D01*
X116629543Y-82354202D02*
X116552133Y-82315497D01*
X116552133Y-82315497D02*
X116474724Y-82238088D01*
X116474724Y-82238088D02*
X116358610Y-82121973D01*
X116358610Y-82121973D02*
X116281200Y-82083268D01*
X116281200Y-82083268D02*
X116203791Y-82083268D01*
X116242495Y-82276792D02*
X116165086Y-82238088D01*
X116165086Y-82238088D02*
X116087676Y-82160678D01*
X116087676Y-82160678D02*
X116048972Y-82005859D01*
X116048972Y-82005859D02*
X116048972Y-81734926D01*
X116048972Y-81734926D02*
X116087676Y-81580107D01*
X116087676Y-81580107D02*
X116165086Y-81502697D01*
X116165086Y-81502697D02*
X116242495Y-81463992D01*
X116242495Y-81463992D02*
X116397314Y-81463992D01*
X116397314Y-81463992D02*
X116474724Y-81502697D01*
X116474724Y-81502697D02*
X116552133Y-81580107D01*
X116552133Y-81580107D02*
X116590838Y-81734926D01*
X116590838Y-81734926D02*
X116590838Y-82005859D01*
X116590838Y-82005859D02*
X116552133Y-82160678D01*
X116552133Y-82160678D02*
X116474724Y-82238088D01*
X116474724Y-82238088D02*
X116397314Y-82276792D01*
X116397314Y-82276792D02*
X116242495Y-82276792D01*
X116939181Y-81463992D02*
X116939181Y-82121973D01*
X116939181Y-82121973D02*
X116977886Y-82199383D01*
X116977886Y-82199383D02*
X117016591Y-82238088D01*
X117016591Y-82238088D02*
X117094000Y-82276792D01*
X117094000Y-82276792D02*
X117248819Y-82276792D01*
X117248819Y-82276792D02*
X117326229Y-82238088D01*
X117326229Y-82238088D02*
X117364934Y-82199383D01*
X117364934Y-82199383D02*
X117403638Y-82121973D01*
X117403638Y-82121973D02*
X117403638Y-81463992D01*
X117790686Y-81851040D02*
X118061620Y-81851040D01*
X118177734Y-82276792D02*
X117790686Y-82276792D01*
X117790686Y-82276792D02*
X117790686Y-81463992D01*
X117790686Y-81463992D02*
X118177734Y-81463992D01*
X118526076Y-82199383D02*
X118564781Y-82238088D01*
X118564781Y-82238088D02*
X118526076Y-82276792D01*
X118526076Y-82276792D02*
X118487372Y-82238088D01*
X118487372Y-82238088D02*
X118526076Y-82199383D01*
X118526076Y-82199383D02*
X118526076Y-82276792D01*
X119377581Y-82199383D02*
X119338877Y-82238088D01*
X119338877Y-82238088D02*
X119222762Y-82276792D01*
X119222762Y-82276792D02*
X119145353Y-82276792D01*
X119145353Y-82276792D02*
X119029239Y-82238088D01*
X119029239Y-82238088D02*
X118951829Y-82160678D01*
X118951829Y-82160678D02*
X118913124Y-82083268D01*
X118913124Y-82083268D02*
X118874420Y-81928449D01*
X118874420Y-81928449D02*
X118874420Y-81812335D01*
X118874420Y-81812335D02*
X118913124Y-81657516D01*
X118913124Y-81657516D02*
X118951829Y-81580107D01*
X118951829Y-81580107D02*
X119029239Y-81502697D01*
X119029239Y-81502697D02*
X119145353Y-81463992D01*
X119145353Y-81463992D02*
X119222762Y-81463992D01*
X119222762Y-81463992D02*
X119338877Y-81502697D01*
X119338877Y-81502697D02*
X119377581Y-81541402D01*
X119687220Y-82044564D02*
X120074267Y-82044564D01*
X119609810Y-82276792D02*
X119880743Y-81463992D01*
X119880743Y-81463992D02*
X120151677Y-82276792D01*
X113494457Y-83167776D02*
X113610571Y-83206481D01*
X113610571Y-83206481D02*
X113649276Y-83245185D01*
X113649276Y-83245185D02*
X113687980Y-83322595D01*
X113687980Y-83322595D02*
X113687980Y-83438709D01*
X113687980Y-83438709D02*
X113649276Y-83516119D01*
X113649276Y-83516119D02*
X113610571Y-83554824D01*
X113610571Y-83554824D02*
X113533161Y-83593528D01*
X113533161Y-83593528D02*
X113223523Y-83593528D01*
X113223523Y-83593528D02*
X113223523Y-82780728D01*
X113223523Y-82780728D02*
X113494457Y-82780728D01*
X113494457Y-82780728D02*
X113571866Y-82819433D01*
X113571866Y-82819433D02*
X113610571Y-82858138D01*
X113610571Y-82858138D02*
X113649276Y-82935547D01*
X113649276Y-82935547D02*
X113649276Y-83012957D01*
X113649276Y-83012957D02*
X113610571Y-83090366D01*
X113610571Y-83090366D02*
X113571866Y-83129071D01*
X113571866Y-83129071D02*
X113494457Y-83167776D01*
X113494457Y-83167776D02*
X113223523Y-83167776D01*
X114384666Y-83051662D02*
X114384666Y-83593528D01*
X114036323Y-83051662D02*
X114036323Y-83477414D01*
X114036323Y-83477414D02*
X114075028Y-83554824D01*
X114075028Y-83554824D02*
X114152438Y-83593528D01*
X114152438Y-83593528D02*
X114268552Y-83593528D01*
X114268552Y-83593528D02*
X114345961Y-83554824D01*
X114345961Y-83554824D02*
X114384666Y-83516119D01*
X115120056Y-83554824D02*
X115042647Y-83593528D01*
X115042647Y-83593528D02*
X114887828Y-83593528D01*
X114887828Y-83593528D02*
X114810418Y-83554824D01*
X114810418Y-83554824D02*
X114771713Y-83516119D01*
X114771713Y-83516119D02*
X114733009Y-83438709D01*
X114733009Y-83438709D02*
X114733009Y-83206481D01*
X114733009Y-83206481D02*
X114771713Y-83129071D01*
X114771713Y-83129071D02*
X114810418Y-83090366D01*
X114810418Y-83090366D02*
X114887828Y-83051662D01*
X114887828Y-83051662D02*
X115042647Y-83051662D01*
X115042647Y-83051662D02*
X115120056Y-83090366D01*
X115468399Y-83593528D02*
X115468399Y-82780728D01*
X115545809Y-83283890D02*
X115778037Y-83593528D01*
X115778037Y-83051662D02*
X115468399Y-83361300D01*
X116474723Y-83593528D02*
X116474723Y-83167776D01*
X116474723Y-83167776D02*
X116436018Y-83090366D01*
X116436018Y-83090366D02*
X116358609Y-83051662D01*
X116358609Y-83051662D02*
X116203790Y-83051662D01*
X116203790Y-83051662D02*
X116126380Y-83090366D01*
X116474723Y-83554824D02*
X116397314Y-83593528D01*
X116397314Y-83593528D02*
X116203790Y-83593528D01*
X116203790Y-83593528D02*
X116126380Y-83554824D01*
X116126380Y-83554824D02*
X116087676Y-83477414D01*
X116087676Y-83477414D02*
X116087676Y-83400004D01*
X116087676Y-83400004D02*
X116126380Y-83322595D01*
X116126380Y-83322595D02*
X116203790Y-83283890D01*
X116203790Y-83283890D02*
X116397314Y-83283890D01*
X116397314Y-83283890D02*
X116474723Y-83245185D01*
X116861770Y-83593528D02*
X116861770Y-83051662D01*
X116861770Y-83206481D02*
X116900475Y-83129071D01*
X116900475Y-83129071D02*
X116939180Y-83090366D01*
X116939180Y-83090366D02*
X117016589Y-83051662D01*
X117016589Y-83051662D02*
X117093999Y-83051662D01*
X117481047Y-83593528D02*
X117403637Y-83554824D01*
X117403637Y-83554824D02*
X117364932Y-83516119D01*
X117364932Y-83516119D02*
X117326228Y-83438709D01*
X117326228Y-83438709D02*
X117326228Y-83206481D01*
X117326228Y-83206481D02*
X117364932Y-83129071D01*
X117364932Y-83129071D02*
X117403637Y-83090366D01*
X117403637Y-83090366D02*
X117481047Y-83051662D01*
X117481047Y-83051662D02*
X117597161Y-83051662D01*
X117597161Y-83051662D02*
X117674570Y-83090366D01*
X117674570Y-83090366D02*
X117713275Y-83129071D01*
X117713275Y-83129071D02*
X117751980Y-83206481D01*
X117751980Y-83206481D02*
X117751980Y-83438709D01*
X117751980Y-83438709D02*
X117713275Y-83516119D01*
X117713275Y-83516119D02*
X117674570Y-83554824D01*
X117674570Y-83554824D02*
X117597161Y-83593528D01*
X117597161Y-83593528D02*
X117481047Y-83593528D01*
X118216437Y-83593528D02*
X118139027Y-83554824D01*
X118139027Y-83554824D02*
X118100322Y-83516119D01*
X118100322Y-83516119D02*
X118061618Y-83438709D01*
X118061618Y-83438709D02*
X118061618Y-83206481D01*
X118061618Y-83206481D02*
X118100322Y-83129071D01*
X118100322Y-83129071D02*
X118139027Y-83090366D01*
X118139027Y-83090366D02*
X118216437Y-83051662D01*
X118216437Y-83051662D02*
X118332551Y-83051662D01*
X118332551Y-83051662D02*
X118409960Y-83090366D01*
X118409960Y-83090366D02*
X118448665Y-83129071D01*
X118448665Y-83129071D02*
X118487370Y-83206481D01*
X118487370Y-83206481D02*
X118487370Y-83438709D01*
X118487370Y-83438709D02*
X118448665Y-83516119D01*
X118448665Y-83516119D02*
X118409960Y-83554824D01*
X118409960Y-83554824D02*
X118332551Y-83593528D01*
X118332551Y-83593528D02*
X118216437Y-83593528D01*
X118835712Y-83593528D02*
X118835712Y-82780728D01*
X118835712Y-83167776D02*
X119300169Y-83167776D01*
X119300169Y-83593528D02*
X119300169Y-82780728D01*
X119648513Y-83361300D02*
X120035560Y-83361300D01*
X119571103Y-83593528D02*
X119842036Y-82780728D01*
X119842036Y-82780728D02*
X120112970Y-83593528D01*
X120267789Y-82780728D02*
X120732246Y-82780728D01*
X120500018Y-83593528D02*
X120500018Y-82780728D01*
X121622455Y-83593528D02*
X121622455Y-83051662D01*
X121622455Y-83206481D02*
X121661160Y-83129071D01*
X121661160Y-83129071D02*
X121699865Y-83090366D01*
X121699865Y-83090366D02*
X121777274Y-83051662D01*
X121777274Y-83051662D02*
X121854684Y-83051662D01*
X122435255Y-83554824D02*
X122357846Y-83593528D01*
X122357846Y-83593528D02*
X122203027Y-83593528D01*
X122203027Y-83593528D02*
X122125617Y-83554824D01*
X122125617Y-83554824D02*
X122086913Y-83477414D01*
X122086913Y-83477414D02*
X122086913Y-83167776D01*
X122086913Y-83167776D02*
X122125617Y-83090366D01*
X122125617Y-83090366D02*
X122203027Y-83051662D01*
X122203027Y-83051662D02*
X122357846Y-83051662D01*
X122357846Y-83051662D02*
X122435255Y-83090366D01*
X122435255Y-83090366D02*
X122473960Y-83167776D01*
X122473960Y-83167776D02*
X122473960Y-83245185D01*
X122473960Y-83245185D02*
X122086913Y-83322595D01*
X122744894Y-83051662D02*
X122938418Y-83593528D01*
X122938418Y-83593528D02*
X123131941Y-83051662D01*
X123441579Y-83516119D02*
X123480284Y-83554824D01*
X123480284Y-83554824D02*
X123441579Y-83593528D01*
X123441579Y-83593528D02*
X123402875Y-83554824D01*
X123402875Y-83554824D02*
X123441579Y-83516119D01*
X123441579Y-83516119D02*
X123441579Y-83593528D01*
X124409199Y-82858138D02*
X124447903Y-82819433D01*
X124447903Y-82819433D02*
X124525313Y-82780728D01*
X124525313Y-82780728D02*
X124718837Y-82780728D01*
X124718837Y-82780728D02*
X124796246Y-82819433D01*
X124796246Y-82819433D02*
X124834951Y-82858138D01*
X124834951Y-82858138D02*
X124873656Y-82935547D01*
X124873656Y-82935547D02*
X124873656Y-83012957D01*
X124873656Y-83012957D02*
X124834951Y-83129071D01*
X124834951Y-83129071D02*
X124370494Y-83593528D01*
X124370494Y-83593528D02*
X124873656Y-83593528D01*
D11*
%TO.C,J1*%
X159118333Y-84914095D02*
X159118333Y-85485523D01*
X159118333Y-85485523D02*
X159080238Y-85599809D01*
X159080238Y-85599809D02*
X159004047Y-85676000D01*
X159004047Y-85676000D02*
X158889762Y-85714095D01*
X158889762Y-85714095D02*
X158813571Y-85714095D01*
X159918333Y-85714095D02*
X159461190Y-85714095D01*
X159689762Y-85714095D02*
X159689762Y-84914095D01*
X159689762Y-84914095D02*
X159613571Y-85028380D01*
X159613571Y-85028380D02*
X159537381Y-85104571D01*
X159537381Y-85104571D02*
X159461190Y-85142666D01*
%TO.C,J2*%
X104024133Y-76388509D02*
X104024133Y-76745652D01*
X104024133Y-76745652D02*
X104000324Y-76817080D01*
X104000324Y-76817080D02*
X103952705Y-76864700D01*
X103952705Y-76864700D02*
X103881276Y-76888509D01*
X103881276Y-76888509D02*
X103833657Y-76888509D01*
X104238419Y-76436128D02*
X104262228Y-76412319D01*
X104262228Y-76412319D02*
X104309847Y-76388509D01*
X104309847Y-76388509D02*
X104428895Y-76388509D01*
X104428895Y-76388509D02*
X104476514Y-76412319D01*
X104476514Y-76412319D02*
X104500323Y-76436128D01*
X104500323Y-76436128D02*
X104524133Y-76483747D01*
X104524133Y-76483747D02*
X104524133Y-76531366D01*
X104524133Y-76531366D02*
X104500323Y-76602795D01*
X104500323Y-76602795D02*
X104214609Y-76888509D01*
X104214609Y-76888509D02*
X104524133Y-76888509D01*
D12*
%TO.C,U1*%
X140589095Y-82901619D02*
X140589095Y-83711142D01*
X140589095Y-83711142D02*
X140636714Y-83806380D01*
X140636714Y-83806380D02*
X140684333Y-83854000D01*
X140684333Y-83854000D02*
X140779571Y-83901619D01*
X140779571Y-83901619D02*
X140970047Y-83901619D01*
X140970047Y-83901619D02*
X141065285Y-83854000D01*
X141065285Y-83854000D02*
X141112904Y-83806380D01*
X141112904Y-83806380D02*
X141160523Y-83711142D01*
X141160523Y-83711142D02*
X141160523Y-82901619D01*
X142160523Y-83901619D02*
X141589095Y-83901619D01*
X141874809Y-83901619D02*
X141874809Y-82901619D01*
X141874809Y-82901619D02*
X141779571Y-83044476D01*
X141779571Y-83044476D02*
X141684333Y-83139714D01*
X141684333Y-83139714D02*
X141589095Y-83187333D01*
D13*
%TO.C,C4*%
X130422667Y-80430904D02*
X130384571Y-80469000D01*
X130384571Y-80469000D02*
X130270286Y-80507095D01*
X130270286Y-80507095D02*
X130194095Y-80507095D01*
X130194095Y-80507095D02*
X130079809Y-80469000D01*
X130079809Y-80469000D02*
X130003619Y-80392809D01*
X130003619Y-80392809D02*
X129965524Y-80316619D01*
X129965524Y-80316619D02*
X129927428Y-80164238D01*
X129927428Y-80164238D02*
X129927428Y-80049952D01*
X129927428Y-80049952D02*
X129965524Y-79897571D01*
X129965524Y-79897571D02*
X130003619Y-79821380D01*
X130003619Y-79821380D02*
X130079809Y-79745190D01*
X130079809Y-79745190D02*
X130194095Y-79707095D01*
X130194095Y-79707095D02*
X130270286Y-79707095D01*
X130270286Y-79707095D02*
X130384571Y-79745190D01*
X130384571Y-79745190D02*
X130422667Y-79783285D01*
X131108381Y-79973761D02*
X131108381Y-80507095D01*
X130917905Y-79669000D02*
X130727428Y-80240428D01*
X130727428Y-80240428D02*
X131222667Y-80240428D01*
%TO.C,C1*%
X144265667Y-79795904D02*
X144227571Y-79834000D01*
X144227571Y-79834000D02*
X144113286Y-79872095D01*
X144113286Y-79872095D02*
X144037095Y-79872095D01*
X144037095Y-79872095D02*
X143922809Y-79834000D01*
X143922809Y-79834000D02*
X143846619Y-79757809D01*
X143846619Y-79757809D02*
X143808524Y-79681619D01*
X143808524Y-79681619D02*
X143770428Y-79529238D01*
X143770428Y-79529238D02*
X143770428Y-79414952D01*
X143770428Y-79414952D02*
X143808524Y-79262571D01*
X143808524Y-79262571D02*
X143846619Y-79186380D01*
X143846619Y-79186380D02*
X143922809Y-79110190D01*
X143922809Y-79110190D02*
X144037095Y-79072095D01*
X144037095Y-79072095D02*
X144113286Y-79072095D01*
X144113286Y-79072095D02*
X144227571Y-79110190D01*
X144227571Y-79110190D02*
X144265667Y-79148285D01*
X145027571Y-79872095D02*
X144570428Y-79872095D01*
X144799000Y-79872095D02*
X144799000Y-79072095D01*
X144799000Y-79072095D02*
X144722809Y-79186380D01*
X144722809Y-79186380D02*
X144646619Y-79262571D01*
X144646619Y-79262571D02*
X144570428Y-79300666D01*
%TO.C,R1*%
X146043667Y-79364095D02*
X145777000Y-78983142D01*
X145586524Y-79364095D02*
X145586524Y-78564095D01*
X145586524Y-78564095D02*
X145891286Y-78564095D01*
X145891286Y-78564095D02*
X145967476Y-78602190D01*
X145967476Y-78602190D02*
X146005571Y-78640285D01*
X146005571Y-78640285D02*
X146043667Y-78716476D01*
X146043667Y-78716476D02*
X146043667Y-78830761D01*
X146043667Y-78830761D02*
X146005571Y-78906952D01*
X146005571Y-78906952D02*
X145967476Y-78945047D01*
X145967476Y-78945047D02*
X145891286Y-78983142D01*
X145891286Y-78983142D02*
X145586524Y-78983142D01*
X146805571Y-79364095D02*
X146348428Y-79364095D01*
X146577000Y-79364095D02*
X146577000Y-78564095D01*
X146577000Y-78564095D02*
X146500809Y-78678380D01*
X146500809Y-78678380D02*
X146424619Y-78754571D01*
X146424619Y-78754571D02*
X146348428Y-78792666D01*
%TO.C,C3*%
X128898667Y-80430904D02*
X128860571Y-80469000D01*
X128860571Y-80469000D02*
X128746286Y-80507095D01*
X128746286Y-80507095D02*
X128670095Y-80507095D01*
X128670095Y-80507095D02*
X128555809Y-80469000D01*
X128555809Y-80469000D02*
X128479619Y-80392809D01*
X128479619Y-80392809D02*
X128441524Y-80316619D01*
X128441524Y-80316619D02*
X128403428Y-80164238D01*
X128403428Y-80164238D02*
X128403428Y-80049952D01*
X128403428Y-80049952D02*
X128441524Y-79897571D01*
X128441524Y-79897571D02*
X128479619Y-79821380D01*
X128479619Y-79821380D02*
X128555809Y-79745190D01*
X128555809Y-79745190D02*
X128670095Y-79707095D01*
X128670095Y-79707095D02*
X128746286Y-79707095D01*
X128746286Y-79707095D02*
X128860571Y-79745190D01*
X128860571Y-79745190D02*
X128898667Y-79783285D01*
X129165333Y-79707095D02*
X129660571Y-79707095D01*
X129660571Y-79707095D02*
X129393905Y-80011857D01*
X129393905Y-80011857D02*
X129508190Y-80011857D01*
X129508190Y-80011857D02*
X129584381Y-80049952D01*
X129584381Y-80049952D02*
X129622476Y-80088047D01*
X129622476Y-80088047D02*
X129660571Y-80164238D01*
X129660571Y-80164238D02*
X129660571Y-80354714D01*
X129660571Y-80354714D02*
X129622476Y-80430904D01*
X129622476Y-80430904D02*
X129584381Y-80469000D01*
X129584381Y-80469000D02*
X129508190Y-80507095D01*
X129508190Y-80507095D02*
X129279619Y-80507095D01*
X129279619Y-80507095D02*
X129203428Y-80469000D01*
X129203428Y-80469000D02*
X129165333Y-80430904D01*
D12*
%TO.C,L1*%
X134997333Y-81361619D02*
X134521143Y-81361619D01*
X134521143Y-81361619D02*
X134521143Y-80361619D01*
X135854476Y-81361619D02*
X135283048Y-81361619D01*
X135568762Y-81361619D02*
X135568762Y-80361619D01*
X135568762Y-80361619D02*
X135473524Y-80504476D01*
X135473524Y-80504476D02*
X135378286Y-80599714D01*
X135378286Y-80599714D02*
X135283048Y-80647333D01*
D13*
%TO.C,R2*%
X147567667Y-79364095D02*
X147301000Y-78983142D01*
X147110524Y-79364095D02*
X147110524Y-78564095D01*
X147110524Y-78564095D02*
X147415286Y-78564095D01*
X147415286Y-78564095D02*
X147491476Y-78602190D01*
X147491476Y-78602190D02*
X147529571Y-78640285D01*
X147529571Y-78640285D02*
X147567667Y-78716476D01*
X147567667Y-78716476D02*
X147567667Y-78830761D01*
X147567667Y-78830761D02*
X147529571Y-78906952D01*
X147529571Y-78906952D02*
X147491476Y-78945047D01*
X147491476Y-78945047D02*
X147415286Y-78983142D01*
X147415286Y-78983142D02*
X147110524Y-78983142D01*
X147872428Y-78640285D02*
X147910524Y-78602190D01*
X147910524Y-78602190D02*
X147986714Y-78564095D01*
X147986714Y-78564095D02*
X148177190Y-78564095D01*
X148177190Y-78564095D02*
X148253381Y-78602190D01*
X148253381Y-78602190D02*
X148291476Y-78640285D01*
X148291476Y-78640285D02*
X148329571Y-78716476D01*
X148329571Y-78716476D02*
X148329571Y-78792666D01*
X148329571Y-78792666D02*
X148291476Y-78906952D01*
X148291476Y-78906952D02*
X147834333Y-79364095D01*
X147834333Y-79364095D02*
X148329571Y-79364095D01*
D11*
%TO.C,J3*%
X108918333Y-85754380D02*
X108918333Y-85040095D01*
X108918333Y-85040095D02*
X108965952Y-84897238D01*
X108965952Y-84897238D02*
X109061190Y-84802000D01*
X109061190Y-84802000D02*
X109204047Y-84754380D01*
X109204047Y-84754380D02*
X109299285Y-84754380D01*
X108537380Y-85754380D02*
X107918333Y-85754380D01*
X107918333Y-85754380D02*
X108251666Y-85373428D01*
X108251666Y-85373428D02*
X108108809Y-85373428D01*
X108108809Y-85373428D02*
X108013571Y-85325809D01*
X108013571Y-85325809D02*
X107965952Y-85278190D01*
X107965952Y-85278190D02*
X107918333Y-85182952D01*
X107918333Y-85182952D02*
X107918333Y-84944857D01*
X107918333Y-84944857D02*
X107965952Y-84849619D01*
X107965952Y-84849619D02*
X108013571Y-84802000D01*
X108013571Y-84802000D02*
X108108809Y-84754380D01*
X108108809Y-84754380D02*
X108394523Y-84754380D01*
X108394523Y-84754380D02*
X108489761Y-84802000D01*
X108489761Y-84802000D02*
X108537380Y-84849619D01*
D13*
%TO.C,C2*%
X143579867Y-78779904D02*
X143541771Y-78818000D01*
X143541771Y-78818000D02*
X143427486Y-78856095D01*
X143427486Y-78856095D02*
X143351295Y-78856095D01*
X143351295Y-78856095D02*
X143237009Y-78818000D01*
X143237009Y-78818000D02*
X143160819Y-78741809D01*
X143160819Y-78741809D02*
X143122724Y-78665619D01*
X143122724Y-78665619D02*
X143084628Y-78513238D01*
X143084628Y-78513238D02*
X143084628Y-78398952D01*
X143084628Y-78398952D02*
X143122724Y-78246571D01*
X143122724Y-78246571D02*
X143160819Y-78170380D01*
X143160819Y-78170380D02*
X143237009Y-78094190D01*
X143237009Y-78094190D02*
X143351295Y-78056095D01*
X143351295Y-78056095D02*
X143427486Y-78056095D01*
X143427486Y-78056095D02*
X143541771Y-78094190D01*
X143541771Y-78094190D02*
X143579867Y-78132285D01*
X143884628Y-78132285D02*
X143922724Y-78094190D01*
X143922724Y-78094190D02*
X143998914Y-78056095D01*
X143998914Y-78056095D02*
X144189390Y-78056095D01*
X144189390Y-78056095D02*
X144265581Y-78094190D01*
X144265581Y-78094190D02*
X144303676Y-78132285D01*
X144303676Y-78132285D02*
X144341771Y-78208476D01*
X144341771Y-78208476D02*
X144341771Y-78284666D01*
X144341771Y-78284666D02*
X144303676Y-78398952D01*
X144303676Y-78398952D02*
X143846533Y-78856095D01*
X143846533Y-78856095D02*
X144341771Y-78856095D01*
D11*
%TO.C,D1*%
X153935952Y-78590309D02*
X153935952Y-78090309D01*
X153935952Y-78090309D02*
X154055000Y-78090309D01*
X154055000Y-78090309D02*
X154126428Y-78114119D01*
X154126428Y-78114119D02*
X154174047Y-78161738D01*
X154174047Y-78161738D02*
X154197857Y-78209357D01*
X154197857Y-78209357D02*
X154221666Y-78304595D01*
X154221666Y-78304595D02*
X154221666Y-78376023D01*
X154221666Y-78376023D02*
X154197857Y-78471261D01*
X154197857Y-78471261D02*
X154174047Y-78518880D01*
X154174047Y-78518880D02*
X154126428Y-78566500D01*
X154126428Y-78566500D02*
X154055000Y-78590309D01*
X154055000Y-78590309D02*
X153935952Y-78590309D01*
X154697857Y-78590309D02*
X154412143Y-78590309D01*
X154555000Y-78590309D02*
X154555000Y-78090309D01*
X154555000Y-78090309D02*
X154507381Y-78161738D01*
X154507381Y-78161738D02*
X154459762Y-78209357D01*
X154459762Y-78209357D02*
X154412143Y-78233166D01*
D13*
%TO.C,JP1*%
X150332429Y-83954309D02*
X150046715Y-83954309D01*
X150189572Y-83954309D02*
X150189572Y-83454309D01*
X150189572Y-83454309D02*
X150141953Y-83525738D01*
X150141953Y-83525738D02*
X150094334Y-83573357D01*
X150094334Y-83573357D02*
X150046715Y-83597166D01*
X150522905Y-83501928D02*
X150546714Y-83478119D01*
X150546714Y-83478119D02*
X150594333Y-83454309D01*
X150594333Y-83454309D02*
X150713381Y-83454309D01*
X150713381Y-83454309D02*
X150761000Y-83478119D01*
X150761000Y-83478119D02*
X150784809Y-83501928D01*
X150784809Y-83501928D02*
X150808619Y-83549547D01*
X150808619Y-83549547D02*
X150808619Y-83597166D01*
X150808619Y-83597166D02*
X150784809Y-83668595D01*
X150784809Y-83668595D02*
X150499095Y-83954309D01*
X150499095Y-83954309D02*
X150808619Y-83954309D01*
X150975285Y-83620976D02*
X151094333Y-83954309D01*
X151094333Y-83954309D02*
X151213380Y-83620976D01*
X151784808Y-83954309D02*
X151784808Y-83454309D01*
X151784808Y-83454309D02*
X151975284Y-83454309D01*
X151975284Y-83454309D02*
X152022903Y-83478119D01*
X152022903Y-83478119D02*
X152046713Y-83501928D01*
X152046713Y-83501928D02*
X152070522Y-83549547D01*
X152070522Y-83549547D02*
X152070522Y-83620976D01*
X152070522Y-83620976D02*
X152046713Y-83668595D01*
X152046713Y-83668595D02*
X152022903Y-83692404D01*
X152022903Y-83692404D02*
X151975284Y-83716214D01*
X151975284Y-83716214D02*
X151784808Y-83716214D01*
X152356237Y-83954309D02*
X152308618Y-83930500D01*
X152308618Y-83930500D02*
X152284808Y-83906690D01*
X152284808Y-83906690D02*
X152260999Y-83859071D01*
X152260999Y-83859071D02*
X152260999Y-83716214D01*
X152260999Y-83716214D02*
X152284808Y-83668595D01*
X152284808Y-83668595D02*
X152308618Y-83644785D01*
X152308618Y-83644785D02*
X152356237Y-83620976D01*
X152356237Y-83620976D02*
X152427665Y-83620976D01*
X152427665Y-83620976D02*
X152475284Y-83644785D01*
X152475284Y-83644785D02*
X152499094Y-83668595D01*
X152499094Y-83668595D02*
X152522903Y-83716214D01*
X152522903Y-83716214D02*
X152522903Y-83859071D01*
X152522903Y-83859071D02*
X152499094Y-83906690D01*
X152499094Y-83906690D02*
X152475284Y-83930500D01*
X152475284Y-83930500D02*
X152427665Y-83954309D01*
X152427665Y-83954309D02*
X152356237Y-83954309D01*
X152737189Y-83692404D02*
X152903856Y-83692404D01*
X152975284Y-83954309D02*
X152737189Y-83954309D01*
X152737189Y-83954309D02*
X152737189Y-83454309D01*
X152737189Y-83454309D02*
X152975284Y-83454309D01*
X150546714Y-78120309D02*
X150308619Y-78120309D01*
X150308619Y-78120309D02*
X150284810Y-78358404D01*
X150284810Y-78358404D02*
X150308619Y-78334595D01*
X150308619Y-78334595D02*
X150356238Y-78310785D01*
X150356238Y-78310785D02*
X150475286Y-78310785D01*
X150475286Y-78310785D02*
X150522905Y-78334595D01*
X150522905Y-78334595D02*
X150546714Y-78358404D01*
X150546714Y-78358404D02*
X150570524Y-78406023D01*
X150570524Y-78406023D02*
X150570524Y-78525071D01*
X150570524Y-78525071D02*
X150546714Y-78572690D01*
X150546714Y-78572690D02*
X150522905Y-78596500D01*
X150522905Y-78596500D02*
X150475286Y-78620309D01*
X150475286Y-78620309D02*
X150356238Y-78620309D01*
X150356238Y-78620309D02*
X150308619Y-78596500D01*
X150308619Y-78596500D02*
X150284810Y-78572690D01*
X150737190Y-78286976D02*
X150856238Y-78620309D01*
X150856238Y-78620309D02*
X150975285Y-78286976D01*
X151546713Y-78620309D02*
X151546713Y-78120309D01*
X151546713Y-78120309D02*
X151737189Y-78120309D01*
X151737189Y-78120309D02*
X151784808Y-78144119D01*
X151784808Y-78144119D02*
X151808618Y-78167928D01*
X151808618Y-78167928D02*
X151832427Y-78215547D01*
X151832427Y-78215547D02*
X151832427Y-78286976D01*
X151832427Y-78286976D02*
X151808618Y-78334595D01*
X151808618Y-78334595D02*
X151784808Y-78358404D01*
X151784808Y-78358404D02*
X151737189Y-78382214D01*
X151737189Y-78382214D02*
X151546713Y-78382214D01*
X152118142Y-78620309D02*
X152070523Y-78596500D01*
X152070523Y-78596500D02*
X152046713Y-78572690D01*
X152046713Y-78572690D02*
X152022904Y-78525071D01*
X152022904Y-78525071D02*
X152022904Y-78382214D01*
X152022904Y-78382214D02*
X152046713Y-78334595D01*
X152046713Y-78334595D02*
X152070523Y-78310785D01*
X152070523Y-78310785D02*
X152118142Y-78286976D01*
X152118142Y-78286976D02*
X152189570Y-78286976D01*
X152189570Y-78286976D02*
X152237189Y-78310785D01*
X152237189Y-78310785D02*
X152260999Y-78334595D01*
X152260999Y-78334595D02*
X152284808Y-78382214D01*
X152284808Y-78382214D02*
X152284808Y-78525071D01*
X152284808Y-78525071D02*
X152260999Y-78572690D01*
X152260999Y-78572690D02*
X152237189Y-78596500D01*
X152237189Y-78596500D02*
X152189570Y-78620309D01*
X152189570Y-78620309D02*
X152118142Y-78620309D01*
X152499094Y-78358404D02*
X152665761Y-78358404D01*
X152737189Y-78620309D02*
X152499094Y-78620309D01*
X152499094Y-78620309D02*
X152499094Y-78120309D01*
X152499094Y-78120309D02*
X152737189Y-78120309D01*
D11*
%TO.C,J1*%
X156795001Y-77107899D02*
X161875001Y-77107899D01*
X161875001Y-77107899D02*
X161875001Y-84727899D01*
X161875001Y-84727899D02*
X156795001Y-84727899D01*
X156795001Y-84727899D02*
X156795001Y-77107899D01*
%TO.C,J2*%
X104724200Y-70616800D02*
X112344200Y-70616800D01*
X112344200Y-70616800D02*
X112344200Y-78236800D01*
X112344200Y-78236800D02*
X104724200Y-78236800D01*
X104724200Y-78236800D02*
X104724200Y-70616800D01*
D14*
%TO.C,U1*%
X141351000Y-82652000D02*
X140551000Y-82652000D01*
X141351000Y-79532000D02*
X142151000Y-79532000D01*
X141351000Y-82652000D02*
X142151000Y-82652000D01*
X141351000Y-79532000D02*
X139551000Y-79532000D01*
%TO.C,C4*%
X131066000Y-82149733D02*
X131066000Y-82442267D01*
X130046000Y-82149733D02*
X130046000Y-82442267D01*
%TO.C,C1*%
X143669500Y-82049252D02*
X143669500Y-81526748D01*
X145139500Y-82049252D02*
X145139500Y-81526748D01*
%TO.C,R1*%
X146699500Y-80771276D02*
X146699500Y-81280724D01*
X145654500Y-80771276D02*
X145654500Y-81280724D01*
%TO.C,C3*%
X129542000Y-82149733D02*
X129542000Y-82442267D01*
X128522000Y-82149733D02*
X128522000Y-82442267D01*
%TO.C,L1*%
X138614000Y-83449000D02*
X131714000Y-83449000D01*
X138614000Y-78349000D02*
X131714000Y-78349000D01*
%TO.C,R2*%
X147178500Y-81280724D02*
X147178500Y-80771276D01*
X148223500Y-81280724D02*
X148223500Y-80771276D01*
D11*
%TO.C,J3*%
X105410000Y-86485000D02*
X111760000Y-86485000D01*
X105410000Y-79375000D02*
X105410000Y-83945000D01*
X107823000Y-79375000D02*
X106807000Y-79375000D01*
X109347000Y-79375000D02*
X110363000Y-79375000D01*
X111760000Y-79375000D02*
X111760000Y-83945000D01*
D14*
%TO.C,C2*%
X141204733Y-78103000D02*
X141497267Y-78103000D01*
X141204733Y-79123000D02*
X141497267Y-79123000D01*
%TO.C,D1*%
X155305000Y-78796000D02*
X153305000Y-78796000D01*
X155305000Y-78796000D02*
X155305000Y-82806000D01*
X153305000Y-78796000D02*
X153305000Y-82806000D01*
%TO.C,JP1*%
X150511000Y-82406000D02*
G75*
G03*
X151211000Y-83106000I700000J0D01*
G01*
X151211000Y-79006000D02*
G75*
G03*
X150511000Y-79706000I-1J-699999D01*
G01*
X151811000Y-83106000D02*
G75*
G03*
X152511000Y-82406000I0J700000D01*
G01*
X152511000Y-79706000D02*
G75*
G03*
X151811000Y-79006000I-699999J1D01*
G01*
X152511000Y-79656000D02*
X152511000Y-82456000D01*
X151811000Y-83106000D02*
X151211000Y-83106000D01*
X151211000Y-79006000D02*
X151811000Y-79006000D01*
X150511000Y-82456000D02*
X150511000Y-79656000D01*
%TO.C,G\u002A\u002A\u002A*%
G36*
X124804275Y-78182787D02*
G01*
X124876164Y-78183173D01*
X124933881Y-78183865D01*
X124978671Y-78184900D01*
X125011781Y-78186316D01*
X125034456Y-78188154D01*
X125047944Y-78190451D01*
X125053375Y-78193083D01*
X125056639Y-78203354D01*
X125062494Y-78228192D01*
X125070566Y-78265762D01*
X125080482Y-78314231D01*
X125091868Y-78371765D01*
X125104350Y-78436530D01*
X125117557Y-78506692D01*
X125120709Y-78523682D01*
X125134258Y-78595692D01*
X125147244Y-78662426D01*
X125159286Y-78722088D01*
X125170002Y-78772878D01*
X125179013Y-78813001D01*
X125185936Y-78840656D01*
X125190390Y-78854047D01*
X125190932Y-78854837D01*
X125202310Y-78861625D01*
X125226794Y-78873326D01*
X125261907Y-78888937D01*
X125305171Y-78907458D01*
X125354111Y-78927889D01*
X125406249Y-78949228D01*
X125459107Y-78970477D01*
X125510209Y-78990633D01*
X125557078Y-79008697D01*
X125597237Y-79023667D01*
X125628209Y-79034544D01*
X125647517Y-79040326D01*
X125651792Y-79041000D01*
X125666661Y-79035997D01*
X125694216Y-79021216D01*
X125733900Y-78996996D01*
X125785154Y-78963678D01*
X125845665Y-78922804D01*
X125925804Y-78867913D01*
X125993335Y-78821718D01*
X126049385Y-78783476D01*
X126095081Y-78752441D01*
X126131550Y-78727871D01*
X126159920Y-78709021D01*
X126181316Y-78695147D01*
X126196867Y-78685505D01*
X126207699Y-78679351D01*
X126214940Y-78675941D01*
X126219716Y-78674530D01*
X126222032Y-78674333D01*
X126231036Y-78680086D01*
X126250004Y-78696297D01*
X126277366Y-78721391D01*
X126311552Y-78753795D01*
X126350992Y-78791935D01*
X126394116Y-78834236D01*
X126439355Y-78879125D01*
X126485138Y-78925028D01*
X126529896Y-78970371D01*
X126572059Y-79013580D01*
X126610056Y-79053081D01*
X126642319Y-79087301D01*
X126667277Y-79114665D01*
X126683360Y-79133600D01*
X126689000Y-79142500D01*
X126684429Y-79153211D01*
X126671644Y-79175339D01*
X126652036Y-79206681D01*
X126626997Y-79245035D01*
X126597918Y-79288198D01*
X126586414Y-79304944D01*
X126520776Y-79400212D01*
X126464700Y-79482068D01*
X126418079Y-79550674D01*
X126380804Y-79606191D01*
X126352768Y-79648781D01*
X126333862Y-79678606D01*
X126323978Y-79695827D01*
X126322333Y-79700210D01*
X126325489Y-79709733D01*
X126334418Y-79732605D01*
X126348313Y-79766861D01*
X126366367Y-79810538D01*
X126387771Y-79861671D01*
X126411718Y-79918296D01*
X126420250Y-79938341D01*
X126450411Y-80008134D01*
X126476916Y-80067512D01*
X126499252Y-80115395D01*
X126516904Y-80150703D01*
X126529357Y-80172357D01*
X126534833Y-80178897D01*
X126546624Y-80182841D01*
X126572885Y-80189310D01*
X126611678Y-80197899D01*
X126661065Y-80208204D01*
X126719107Y-80219822D01*
X126783867Y-80232348D01*
X126853407Y-80245379D01*
X126855666Y-80245795D01*
X126925000Y-80258732D01*
X126989340Y-80271047D01*
X127046800Y-80282357D01*
X127095494Y-80292276D01*
X127133534Y-80300420D01*
X127159036Y-80306404D01*
X127170112Y-80309844D01*
X127170250Y-80309939D01*
X127172946Y-80320113D01*
X127175277Y-80344697D01*
X127177242Y-80381500D01*
X127178838Y-80428331D01*
X127180063Y-80483001D01*
X127180915Y-80543317D01*
X127181391Y-80607089D01*
X127181490Y-80672126D01*
X127181210Y-80736238D01*
X127180547Y-80797233D01*
X127179500Y-80852920D01*
X127178067Y-80901109D01*
X127176246Y-80939609D01*
X127174034Y-80966229D01*
X127171430Y-80978778D01*
X127170911Y-80979378D01*
X127160746Y-80982228D01*
X127136066Y-80987707D01*
X127098750Y-80995439D01*
X127050677Y-81005050D01*
X126993727Y-81016164D01*
X126929777Y-81028405D01*
X126860708Y-81041398D01*
X126856885Y-81042111D01*
X126787571Y-81055260D01*
X126723278Y-81067900D01*
X126665886Y-81079629D01*
X126617277Y-81090043D01*
X126579331Y-81098738D01*
X126553929Y-81105311D01*
X126542953Y-81109358D01*
X126542813Y-81109491D01*
X126537416Y-81119630D01*
X126526744Y-81143326D01*
X126511619Y-81178625D01*
X126492861Y-81223571D01*
X126471289Y-81276210D01*
X126447726Y-81334585D01*
X126435384Y-81365486D01*
X126407225Y-81436682D01*
X126384993Y-81494007D01*
X126368175Y-81538961D01*
X126356261Y-81573045D01*
X126348737Y-81597761D01*
X126345093Y-81614610D01*
X126344815Y-81625092D01*
X126345740Y-81628331D01*
X126352766Y-81640289D01*
X126367779Y-81663571D01*
X126389218Y-81695835D01*
X126415527Y-81734743D01*
X126445145Y-81777953D01*
X126452612Y-81788760D01*
X126487996Y-81839911D01*
X126525453Y-81894088D01*
X126562012Y-81946991D01*
X126594702Y-81994322D01*
X126618166Y-82028323D01*
X126642348Y-82064525D01*
X126662615Y-82097044D01*
X126677215Y-82122896D01*
X126684390Y-82139097D01*
X126684833Y-82141660D01*
X126679137Y-82150733D01*
X126663084Y-82169870D01*
X126638226Y-82197492D01*
X126606118Y-82232020D01*
X126568312Y-82271875D01*
X126526360Y-82315478D01*
X126481817Y-82361249D01*
X126436234Y-82407609D01*
X126391165Y-82452980D01*
X126348163Y-82495782D01*
X126308780Y-82534435D01*
X126274570Y-82567362D01*
X126247086Y-82592983D01*
X126227881Y-82609718D01*
X126218507Y-82615989D01*
X126218350Y-82616000D01*
X126208717Y-82611467D01*
X126187904Y-82598913D01*
X126158361Y-82579906D01*
X126122538Y-82556015D01*
X126092777Y-82535662D01*
X126006513Y-82476168D01*
X125932959Y-82425691D01*
X125871207Y-82383633D01*
X125820351Y-82349399D01*
X125779484Y-82322393D01*
X125747699Y-82302020D01*
X125724090Y-82287683D01*
X125707750Y-82278787D01*
X125697773Y-82274735D01*
X125695145Y-82274333D01*
X125682324Y-82278179D01*
X125658043Y-82288750D01*
X125625364Y-82304598D01*
X125587350Y-82324276D01*
X125571756Y-82332667D01*
X125532582Y-82353429D01*
X125497645Y-82370933D01*
X125469980Y-82383733D01*
X125452620Y-82390385D01*
X125449282Y-82391000D01*
X125445144Y-82388417D01*
X125439029Y-82380039D01*
X125430518Y-82364921D01*
X125419194Y-82342116D01*
X125404638Y-82310680D01*
X125386431Y-82269668D01*
X125364156Y-82218133D01*
X125337395Y-82155130D01*
X125305729Y-82079715D01*
X125268739Y-81990941D01*
X125226009Y-81887863D01*
X125216104Y-81863917D01*
X125179307Y-81774910D01*
X125144313Y-81690226D01*
X125111653Y-81611156D01*
X125081860Y-81538990D01*
X125055467Y-81475019D01*
X125033005Y-81420532D01*
X125015006Y-81376821D01*
X125002004Y-81345175D01*
X124994529Y-81326885D01*
X124992933Y-81322894D01*
X124991241Y-81315988D01*
X124992868Y-81308914D01*
X124999582Y-81300016D01*
X125013151Y-81287638D01*
X125035344Y-81270124D01*
X125067927Y-81245820D01*
X125101500Y-81221224D01*
X125184685Y-81153934D01*
X125252706Y-81084097D01*
X125307052Y-81009783D01*
X125349213Y-80929062D01*
X125370688Y-80872553D01*
X125397912Y-80765468D01*
X125408674Y-80659062D01*
X125403146Y-80554313D01*
X125381501Y-80452200D01*
X125343912Y-80353701D01*
X125290551Y-80259794D01*
X125253530Y-80209182D01*
X125192032Y-80143776D01*
X125117840Y-80084874D01*
X125034362Y-80034684D01*
X124945007Y-79995409D01*
X124900931Y-79981053D01*
X124843054Y-79968979D01*
X124775149Y-79962157D01*
X124702870Y-79960594D01*
X124631871Y-79964295D01*
X124567806Y-79973264D01*
X124536570Y-79980733D01*
X124436640Y-80017956D01*
X124344423Y-80069107D01*
X124261301Y-80132873D01*
X124188651Y-80207939D01*
X124127855Y-80292991D01*
X124080292Y-80386716D01*
X124063690Y-80431025D01*
X124051718Y-80468717D01*
X124043536Y-80501048D01*
X124038238Y-80533549D01*
X124034917Y-80571752D01*
X124032703Y-80620167D01*
X124031449Y-80670731D01*
X124032093Y-80710074D01*
X124035041Y-80743575D01*
X124040696Y-80776612D01*
X124046364Y-80801844D01*
X124077415Y-80902091D01*
X124120816Y-80992988D01*
X124177437Y-81075736D01*
X124248151Y-81151535D01*
X124333830Y-81221588D01*
X124368570Y-81245675D01*
X124399013Y-81266700D01*
X124423970Y-81285382D01*
X124440264Y-81299257D01*
X124444803Y-81304761D01*
X124442397Y-81314213D01*
X124433975Y-81337972D01*
X124419965Y-81374976D01*
X124400799Y-81424162D01*
X124376906Y-81484469D01*
X124348717Y-81554835D01*
X124316662Y-81634197D01*
X124281170Y-81721492D01*
X124242672Y-81815660D01*
X124201598Y-81915638D01*
X124158379Y-82020363D01*
X124113444Y-82128773D01*
X124067223Y-82239807D01*
X124032774Y-82322250D01*
X124016706Y-82358090D01*
X124004053Y-82379963D01*
X123993520Y-82389887D01*
X123988740Y-82391000D01*
X123976252Y-82387189D01*
X123952223Y-82376708D01*
X123919677Y-82360985D01*
X123881643Y-82341449D01*
X123865161Y-82332667D01*
X123825745Y-82311979D01*
X123790573Y-82294519D01*
X123762673Y-82281716D01*
X123745071Y-82274997D01*
X123741535Y-82274333D01*
X123731337Y-82278904D01*
X123709086Y-82291911D01*
X123676428Y-82312294D01*
X123635005Y-82338993D01*
X123586464Y-82370950D01*
X123532448Y-82407103D01*
X123476398Y-82445167D01*
X123418945Y-82484299D01*
X123365691Y-82520277D01*
X123318227Y-82552048D01*
X123278146Y-82578558D01*
X123247039Y-82598756D01*
X123226497Y-82611587D01*
X123218144Y-82616000D01*
X123210582Y-82610293D01*
X123192599Y-82594018D01*
X123165508Y-82568442D01*
X123130620Y-82534832D01*
X123089250Y-82494455D01*
X123042709Y-82448579D01*
X122992311Y-82398471D01*
X122978527Y-82384695D01*
X122927534Y-82333461D01*
X122880437Y-82285726D01*
X122838503Y-82242805D01*
X122802999Y-82206014D01*
X122775193Y-82176668D01*
X122756351Y-82156082D01*
X122747740Y-82145572D01*
X122747333Y-82144645D01*
X122751805Y-82134715D01*
X122763982Y-82114138D01*
X122782004Y-82085921D01*
X122804013Y-82053065D01*
X122804034Y-82053033D01*
X122826048Y-82020882D01*
X122855122Y-81978450D01*
X122888885Y-81929196D01*
X122924965Y-81876579D01*
X122960991Y-81824060D01*
X122971018Y-81809446D01*
X123002884Y-81762726D01*
X123031931Y-81719611D01*
X123056693Y-81682319D01*
X123075702Y-81653070D01*
X123087494Y-81634083D01*
X123090371Y-81628818D01*
X123092233Y-81621454D01*
X123091778Y-81610711D01*
X123088450Y-81594933D01*
X123081699Y-81572463D01*
X123070969Y-81541646D01*
X123055708Y-81500825D01*
X123035363Y-81448343D01*
X123009381Y-81382545D01*
X123001431Y-81362544D01*
X122977110Y-81301967D01*
X122954304Y-81246228D01*
X122933839Y-81197263D01*
X122916540Y-81157006D01*
X122903233Y-81127394D01*
X122894744Y-81110362D01*
X122892508Y-81107120D01*
X122882074Y-81103585D01*
X122857124Y-81097473D01*
X122819544Y-81089175D01*
X122771216Y-81079085D01*
X122714026Y-81067595D01*
X122649858Y-81055099D01*
X122580596Y-81041989D01*
X122575826Y-81041099D01*
X122491045Y-81025040D01*
X122418374Y-81010725D01*
X122358620Y-80998329D01*
X122312591Y-80988028D01*
X122281093Y-80979998D01*
X122264933Y-80974415D01*
X122262990Y-80972984D01*
X122261414Y-80962409D01*
X122259955Y-80937044D01*
X122258651Y-80898765D01*
X122257544Y-80849450D01*
X122256674Y-80790975D01*
X122256082Y-80725216D01*
X122255807Y-80654050D01*
X122255794Y-80639210D01*
X122255805Y-80557096D01*
X122255958Y-80490077D01*
X122256319Y-80436583D01*
X122256959Y-80395042D01*
X122257945Y-80363883D01*
X122259347Y-80341535D01*
X122261234Y-80326426D01*
X122263674Y-80316987D01*
X122266735Y-80311644D01*
X122270250Y-80308951D01*
X122281548Y-80305742D01*
X122307328Y-80299950D01*
X122345669Y-80291959D01*
X122394652Y-80282154D01*
X122452357Y-80270918D01*
X122516864Y-80258636D01*
X122586253Y-80245691D01*
X122589000Y-80245184D01*
X122679929Y-80228146D01*
X122754884Y-80213529D01*
X122814364Y-80201223D01*
X122858866Y-80191119D01*
X122888891Y-80183107D01*
X122904937Y-80177080D01*
X122907317Y-80175443D01*
X122914044Y-80164585D01*
X122926103Y-80140741D01*
X122942456Y-80106289D01*
X122962066Y-80063607D01*
X122983894Y-80015071D01*
X123006904Y-79963058D01*
X123030058Y-79909945D01*
X123052318Y-79858110D01*
X123072648Y-79809930D01*
X123090009Y-79767782D01*
X123103364Y-79734042D01*
X123111675Y-79711088D01*
X123114000Y-79701903D01*
X123113504Y-79697751D01*
X123111498Y-79691971D01*
X123107208Y-79683385D01*
X123099857Y-79670816D01*
X123088668Y-79653087D01*
X123072866Y-79629019D01*
X123051675Y-79597435D01*
X123024320Y-79557158D01*
X122990023Y-79507010D01*
X122948009Y-79445813D01*
X122897502Y-79372389D01*
X122882743Y-79350946D01*
X122848686Y-79301268D01*
X122817675Y-79255646D01*
X122791000Y-79216005D01*
X122769947Y-79184271D01*
X122755804Y-79162372D01*
X122749860Y-79152232D01*
X122749851Y-79152209D01*
X122753085Y-79143949D01*
X122766093Y-79126791D01*
X122789281Y-79100299D01*
X122823055Y-79064033D01*
X122867819Y-79017558D01*
X122923980Y-78960436D01*
X122977320Y-78906845D01*
X123028766Y-78855658D01*
X123076836Y-78808372D01*
X123120201Y-78766253D01*
X123157534Y-78730568D01*
X123187506Y-78702584D01*
X123208786Y-78683567D01*
X123220048Y-78674786D01*
X123221219Y-78674333D01*
X123233242Y-78678905D01*
X123254342Y-78690971D01*
X123280242Y-78708054D01*
X123283775Y-78710541D01*
X123360124Y-78764304D01*
X123434145Y-78815703D01*
X123504552Y-78863894D01*
X123570062Y-78908035D01*
X123629388Y-78947281D01*
X123681248Y-78980790D01*
X123724356Y-79007719D01*
X123757428Y-79027224D01*
X123779179Y-79038462D01*
X123787146Y-79040962D01*
X123801687Y-79037776D01*
X123828752Y-79028923D01*
X123865871Y-79015421D01*
X123910575Y-78998292D01*
X123960394Y-78978555D01*
X124012860Y-78957228D01*
X124065503Y-78935334D01*
X124115854Y-78913890D01*
X124161444Y-78893917D01*
X124199804Y-78876434D01*
X124228464Y-78862461D01*
X124244956Y-78853019D01*
X124247515Y-78850835D01*
X124252445Y-78838419D01*
X124259834Y-78810650D01*
X124269447Y-78768623D01*
X124281051Y-78713434D01*
X124294410Y-78646175D01*
X124309291Y-78567944D01*
X124316717Y-78527841D01*
X124329715Y-78457685D01*
X124342070Y-78392151D01*
X124353397Y-78333181D01*
X124363317Y-78282715D01*
X124371447Y-78242695D01*
X124377405Y-78215061D01*
X124380809Y-78201755D01*
X124380939Y-78201417D01*
X124388642Y-78182667D01*
X124716967Y-78182667D01*
X124804275Y-78182787D01*
G37*
%TD*%
M02*
